<svg width="24" height="24" viewBox="0 0 24 24" fill="none" xmlns="http://www.w3.org/2000/svg">
<path d="M0.765625 13.222L3.70263 14.709M0.859625 9.23395L3.67162 10.74M2.04463 5.91795L3.73362 6.95895M10.8586 5.15095L19.1086 9.36595V12.278M14.9841 20.7087C14.6633 20.7087 14.3471 20.6323 14.0616 20.486L7.87463 17.325C7.52944 17.1461 7.24028 16.8755 7.03897 16.543C6.83766 16.2104 6.732 15.8287 6.73363 15.44V8.56095C6.73191 8.1723 6.83741 7.7907 7.03854 7.45814C7.23967 7.12557 7.52863 6.85492 7.87363 6.67595L14.0616 3.51395C14.3472 3.36806 14.6634 3.29199 14.9841 3.29199C15.3049 3.29199 15.621 3.36806 15.9066 3.51395L22.0936 6.67595C22.4388 6.85474 22.7279 7.12535 22.929 7.45796C23.1302 7.79057 23.2356 8.17226 23.2336 8.56095V15.44C23.2355 15.8286 23.13 16.2103 22.9289 16.5429C22.7277 16.8754 22.4387 17.1461 22.0936 17.325L15.9066 20.486C15.6211 20.6323 15.3049 20.7087 14.9841 20.7087ZM14.9841 20.7087L14.9836 11.473M22.9076 7.42495L14.9836 11.473M14.9836 11.473L7.06063 7.42495" stroke="#293D82" stroke-width="1.5" stroke-linecap="round" stroke-linejoin="round"/>
</svg>
