<svg width="24" height="24" viewBox="0 0 24 24" fill="none" xmlns="http://www.w3.org/2000/svg">
<path d="M17.6761 21.7357H6.3179C5.88757 21.7357 5.47485 21.5648 5.17056 21.2605C4.86626 20.9562 4.69531 20.5435 4.69531 20.1131V5.50977H19.2986V20.1131C19.2986 20.5435 19.1277 20.9562 18.8234 21.2605C18.5191 21.5648 18.1064 21.7357 17.6761 21.7357Z" stroke="#293D82" stroke-width="1.5" stroke-linecap="round" stroke-linejoin="round"/>
<path d="M9.56641 16.8678V10.3774" stroke="#293D82" stroke-width="1.5" stroke-linecap="round" stroke-linejoin="round"/>
<path d="M14.4336 16.8678V10.3774" stroke="#293D82" stroke-width="1.5" stroke-linecap="round" stroke-linejoin="round"/>
<path d="M1.45312 5.50952H22.5469" stroke="#293D82" stroke-width="1.5" stroke-linecap="round" stroke-linejoin="round"/>
<path d="M14.4357 2.2644H9.5679C9.13757 2.2644 8.72485 2.43536 8.42056 2.73965C8.11626 3.04394 7.94531 3.45666 7.94531 3.887V5.5096H16.0582V3.887C16.0582 3.45666 15.8873 3.04394 15.583 2.73965C15.2787 2.43536 14.866 2.2644 14.4357 2.2644Z" stroke="#293D82" stroke-width="1.5" stroke-linecap="round" stroke-linejoin="round"/>
</svg>
