<svg width="13" height="10" viewBox="0 0 13 10" fill="none" xmlns="http://www.w3.org/2000/svg">
<path d="M2.875 5.46917L5.25 7.84417C5.41667 8.01083 5.49653 8.20528 5.48958 8.4275C5.48264 8.64972 5.40278 8.84417 5.25 9.01083C5.08333 9.1775 4.88542 9.26431 4.65625 9.27125C4.42708 9.27819 4.22917 9.19833 4.0625 9.03167L0.25 5.21917C0.0833333 5.0525 0 4.85806 0 4.63583C0 4.41361 0.0833333 4.21917 0.25 4.0525L4.0625 0.24C4.22917 0.0733333 4.42708 -0.00652778 4.65625 0.000416667C4.88542 0.00736111 5.08333 0.0941667 5.25 0.260833C5.40278 0.4275 5.48264 0.621944 5.48958 0.844167C5.49653 1.06639 5.41667 1.26083 5.25 1.4275L2.875 3.8025H12.1667C12.4028 3.8025 12.6007 3.88236 12.7604 4.04208C12.9201 4.20181 13 4.39972 13 4.63583C13 4.87194 12.9201 5.06986 12.7604 5.22958C12.6007 5.38931 12.4028 5.46917 12.1667 5.46917H2.875Z" fill="#090E1F"/>
</svg>
