<svg width="140" height="38" viewBox="0 0 140 38" fill="none" xmlns="http://www.w3.org/2000/svg">
<g clip-path="url(#clip0_3002_11019)">
<path d="M84.2755 4.03508H63.6956C61.6536 4.03508 59.4675 5.66243 58.8119 7.67026L57.4279 11.9113L56.2412 15.5465C56.8968 13.5387 59.083 11.9113 61.1249 11.9113H81.7049C83.7469 11.9113 85.933 10.284 86.5886 8.27612L87.9725 4.03508L89.1593 0.399902C88.5037 2.40773 86.3175 4.03508 84.2755 4.03508Z" fill="#DD1322"/>
<path d="M80.6779 15.0617H60.0979C58.056 15.0617 55.8698 16.689 55.2142 18.6969L53.8303 22.9379L52.6436 26.5731C53.2992 24.5653 55.4853 22.9379 57.5273 22.9379H78.1072C80.1492 22.9379 82.3354 21.3106 82.991 19.3027L84.3749 15.0617L85.5616 11.4265C84.906 13.4343 82.7199 15.0617 80.6779 15.0617Z" fill="#EC6907"/>
<path d="M65.866 26.0884H56.5003C54.4583 26.0884 52.2721 27.7157 51.6165 29.7236L50.2326 33.9646L49.0459 37.5998C49.7015 35.5919 51.8877 33.9646 53.9296 33.9646H59.5984C61.6403 33.9646 63.8265 32.3373 64.4821 30.3294L64.6793 29.7236C65.3349 27.7157 67.521 26.0884 69.563 26.0884H65.866Z" fill="#F1AE38"/>
<path d="M121.149 15.0049H139.175V19.6203H127.114V23.9147H138V28.4975H127.114V32.856H139.5V37.4715H121.149V15.0049Z" fill="#090E1F"/>
<path d="M107.829 15.0049C110.872 15.0049 113.218 15.6992 114.869 17.0878C116.521 18.4559 117.346 20.3886 117.346 22.8884C117.346 25.5166 116.521 27.5681 114.869 29.0415C113.218 30.4944 110.872 31.2214 107.829 31.2214H103.527V37.4715H97.5625V15.0049H107.83H107.829ZM107.829 26.6072C109.068 26.6072 110.013 26.3079 110.665 25.7093C111.339 25.1107 111.675 24.2237 111.675 23.0495C111.675 21.8754 111.339 21.0623 110.665 20.4855C110.013 19.9087 109.068 19.6203 107.829 19.6203H103.527V26.6072H107.829ZM106.787 29.0755H112.588L118.032 37.4727H111.285L106.787 29.0755Z" fill="#090E1F"/>
<path d="M87.1533 15.0049H93.1178V37.4727H87.1533V15.0049Z" fill="#090E1F"/>
<path d="M40.4805 15.0049H46.445V37.4727H40.4805V15.0049Z" fill="#090E1F"/>
<path d="M28.4399 15.0049C31.3519 15.0049 33.612 15.6992 35.2202 17.0878C36.8284 18.4559 37.6319 20.3886 37.6319 22.8884C37.6319 25.5166 36.8272 27.5681 35.2202 29.0415C33.612 30.4944 31.3519 31.2214 28.4399 31.2214H21.7582L24.3659 28.6574V37.4715H18.4014V15.0049H28.4412H28.4399ZM28.1467 26.6072C29.363 26.6072 30.2983 26.3079 30.9502 25.7093C31.6243 25.1107 31.9607 24.2237 31.9607 23.0495C31.9607 21.8754 31.6243 21.0623 30.9502 20.4855C30.2983 19.9087 29.3642 19.6203 28.1467 19.6203H21.7582L24.3659 17.0563V29.1712L21.7582 26.6072H28.1467Z" fill="#090E1F"/>
<path d="M0 15.0049H5.96449V32.5361H15.6457V37.4715H0V15.0049Z" fill="#090E1F"/>
</g>
<defs>
<clipPath id="clip0_3002_11019">
<rect width="139.5" height="37.2" fill="white" transform="translate(0 0.399902)"/>
</clipPath>
</defs>
</svg>
