<svg width="24" height="24" viewBox="0 0 24 24" fill="none" xmlns="http://www.w3.org/2000/svg">
<path d="M6.37546 17.9295C5.96124 17.9295 5.62546 18.2653 5.62546 18.6795C5.62546 19.0937 5.96124 19.4295 6.37546 19.4295V17.9295ZM15.6764 18.6795L15.6766 17.9295H15.6764V18.6795ZM16.5839 18.3477L16.1 17.7746L16.1 17.7747L16.5839 18.3477ZM17.063 17.5086L16.3236 17.3828L16.3235 17.3831L17.063 17.5086ZM19.5351 2.97737L18.7958 2.85138L18.7958 2.85158L19.5351 2.97737ZM20.0145 2.13887L20.4981 2.71208L20.4982 2.71207L20.0145 2.13887ZM20.9217 1.80737L20.9215 2.55737H20.9217V1.80737ZM21.8442 2.55737C22.2584 2.55737 22.5942 2.22159 22.5942 1.80737C22.5942 1.39316 22.2584 1.05737 21.8442 1.05737V2.55737ZM17.5813 15.211C17.9955 15.211 18.3313 14.8752 18.3313 14.461C18.3313 14.0468 17.9955 13.711 17.5813 13.711V15.211ZM6.26477 14.461L6.26465 15.211H6.26477V14.461ZM4.53425 13.8653L4.99584 13.2741L4.99577 13.2741L4.53425 13.8653ZM3.53664 12.331L2.80903 12.5129L2.80906 12.513L3.53664 12.331ZM2.17727 6.89346L2.90487 6.71156L2.90485 6.71145L2.17727 6.89346ZM2.17155 6.57695L1.43787 6.42132L1.43786 6.42139L2.17155 6.57695ZM2.30526 6.29001L2.89632 6.75169L2.89636 6.75165L2.30526 6.29001ZM2.55129 6.0908L2.8799 6.76498L2.87992 6.76497L2.55129 6.0908ZM2.85977 6.01971L2.85937 6.76971H2.85977V6.01971ZM19.0166 6.76971C19.4308 6.76971 19.7666 6.43392 19.7666 6.01971C19.7666 5.6055 19.4308 5.26971 19.0166 5.26971V6.76971ZM6.37546 18.6795V19.4295H15.6764V18.6795V17.9295H6.37546V18.6795ZM15.6764 18.6795L15.6762 19.4295C16.1856 19.4297 16.6786 19.2493 17.0678 18.9207L16.5839 18.3477L16.1 17.7747C15.9814 17.8748 15.8315 17.9296 15.6766 17.9295L15.6764 18.6795ZM16.5839 18.3477L17.0678 18.9207C17.457 18.592 17.7171 18.1363 17.8024 17.6341L17.063 17.5086L16.3235 17.3831C16.2976 17.536 16.2184 17.6747 16.1 17.7746L16.5839 18.3477ZM17.063 17.5086L17.8023 17.6344L20.2745 3.10316L19.5351 2.97737L18.7958 2.85158L16.3236 17.3828L17.063 17.5086ZM19.5351 2.97737L20.2745 3.10337C20.3005 2.95057 20.3798 2.81198 20.4981 2.71208L20.0145 2.13887L19.5308 1.56566C19.1417 1.89404 18.8813 2.34952 18.7958 2.85138L19.5351 2.97737ZM20.0145 2.13887L20.4982 2.71207C20.6166 2.61214 20.7666 2.55734 20.9215 2.55737L20.9217 1.80737L20.9219 1.05737C20.4127 1.05726 19.9199 1.23732 19.5308 1.56567L20.0145 2.13887ZM20.9217 1.80737V2.55737H21.8442V1.80737V1.05737H20.9217V1.80737ZM8.13327 21.4921V20.7421C8.35333 20.7421 8.53171 20.9205 8.53171 21.1406H7.78171H7.03171C7.03171 21.7489 7.52488 22.2421 8.13327 22.2421V21.4921ZM7.78171 21.1406H8.53171C8.53171 21.3606 8.35333 21.539 8.13327 21.539V20.789V20.039C7.52488 20.039 7.03171 20.5322 7.03171 21.1406H7.78171ZM8.13327 21.4921V22.2421C8.74166 22.2421 9.23483 21.7489 9.23483 21.1406H8.48483H7.73483C7.73483 20.9205 7.91321 20.7421 8.13327 20.7421V21.4921ZM8.48483 21.1406H9.23483C9.23483 20.5322 8.74166 20.039 8.13327 20.039V20.789V21.539C7.91321 21.539 7.73483 21.3606 7.73483 21.1406H8.48483ZM15.1645 21.4921V20.7421C15.3846 20.7421 15.563 20.9205 15.563 21.1406H14.813H14.063C14.063 21.7489 14.5561 22.2421 15.1645 22.2421V21.4921ZM14.813 21.1406H15.563C15.563 21.3606 15.3846 21.539 15.1645 21.539V20.789V20.039C14.5561 20.039 14.063 20.5322 14.063 21.1406H14.813ZM15.1645 21.4921V22.2421C15.7729 22.2421 16.2661 21.7489 16.2661 21.1406H15.5161H14.7661C14.7661 20.9205 14.9445 20.7421 15.1645 20.7421V21.4921ZM15.5161 21.1406H16.2661C16.2661 20.5322 15.7729 20.039 15.1645 20.039V20.789V21.539C14.9445 21.539 14.7661 21.3606 14.7661 21.1406H15.5161ZM17.5813 14.461V13.711H6.26477V14.461V15.211H17.5813V14.461ZM6.26477 14.461L6.26488 13.711C5.80495 13.7109 5.35829 13.5572 4.99584 13.2741L4.53425 13.8653L4.07267 14.4564C4.69881 14.9453 5.47036 15.2109 6.26465 15.211L6.26477 14.461ZM4.53425 13.8653L4.99577 13.2741C4.63333 12.9912 4.37582 12.5951 4.26422 12.149L3.53664 12.331L2.80906 12.513C3.00181 13.2835 3.44658 13.9677 4.07274 14.4565L4.53425 13.8653ZM3.53664 12.331L4.26425 12.1491L2.90487 6.71156L2.17727 6.89346L1.44966 7.07536L2.80903 12.5129L3.53664 12.331ZM2.17727 6.89346L2.90485 6.71145C2.90658 6.71839 2.9067 6.7256 2.90524 6.73252L2.17155 6.57695L1.43786 6.42139C1.39205 6.63744 1.39607 6.86113 1.44969 7.07547L2.17727 6.89346ZM2.17155 6.57695L2.90522 6.73258C2.90374 6.73956 2.90069 6.7461 2.89632 6.75169L2.30526 6.29001L1.7142 5.82833C1.57823 6.00241 1.48372 6.2052 1.43787 6.42132L2.17155 6.57695ZM2.30526 6.29001L2.89636 6.75165C2.89194 6.7573 2.88631 6.76186 2.8799 6.76498L2.55129 6.0908L2.22269 5.41662C2.02409 5.51342 1.85017 5.65424 1.71417 5.82837L2.30526 6.29001ZM2.55129 6.0908L2.87992 6.76497C2.8735 6.7681 2.86647 6.76971 2.85937 6.76971L2.85977 6.01971L2.86016 5.26971C2.63928 5.26959 2.42125 5.31983 2.22266 5.41663L2.55129 6.0908ZM2.85977 6.01971V6.76971H19.0166V6.01971V5.26971H2.85977V6.01971Z" fill="#E3F2FD"/>
</svg>
