<svg width="16" height="16" viewBox="0 0 16 16" fill="none" xmlns="http://www.w3.org/2000/svg">
<path d="M5.65234 13.1562H1.90234C1.6537 13.1562 1.41525 13.0575 1.23943 12.8817C1.06362 12.7058 0.964844 12.4674 0.964844 12.2188V1.90625C0.964844 1.65761 1.06362 1.41915 1.23943 1.24334C1.41525 1.06752 1.6537 0.96875 1.90234 0.96875H11.2773C11.526 0.96875 11.7644 1.06752 11.9403 1.24334C12.1161 1.41915 12.2148 1.65761 12.2148 1.90625V6.125M5.65234 3.78125H9.40234M3.77734 6.59375H9.40234M3.77734 9.40625H8.46484M14.6405 9.79375L9.87359 14.5625L7.52984 15.0312L7.99859 12.6875L12.768 7.91875C12.8906 7.79586 13.0363 7.69836 13.1967 7.63184C13.3571 7.56532 13.529 7.53108 13.7027 7.53108C13.8763 7.53108 14.0482 7.56532 14.2086 7.63184C14.369 7.69836 14.5147 7.79586 14.6373 7.91875L14.643 7.92375C14.8906 8.17209 15.0294 8.50859 15.0289 8.85927C15.0285 9.20994 14.8887 9.54608 14.6405 9.79375Z" stroke="white" stroke-linecap="round" stroke-linejoin="round"/>
</svg>
