<svg width="24" height="24" viewBox="0 0 24 24" fill="none" xmlns="http://www.w3.org/2000/svg">
<path d="M8.25 14.75H1.75C1.48478 14.75 1.23043 14.6446 1.04289 14.4571C0.855357 14.2696 0.75 14.0152 0.75 13.75V1.75C0.75 1.48478 0.855357 1.23043 1.04289 1.04289C1.23043 0.855357 1.48478 0.75 1.75 0.75H22.25C22.5152 0.75 22.7696 0.855357 22.9571 1.04289C23.1446 1.23043 23.25 1.48478 23.25 1.75V9.25M4.25 4C4.51418 3.99441 4.77675 4.04232 5.02193 4.14085C5.26711 4.23938 5.48982 4.3865 5.67666 4.57334C5.8635 4.76018 6.01062 4.98289 6.10915 5.22807C6.20768 5.47325 6.25559 5.73582 6.25 6M6.25 6V9.5M6.25 6C6.24441 5.73582 6.29232 5.47325 6.39085 5.22807C6.48938 4.98289 6.6365 4.76018 6.82334 4.57334C7.01018 4.3865 7.23289 4.23938 7.47807 4.14085C7.72325 4.04232 7.98582 3.99441 8.25 4M4.25 11.5C4.51418 11.5056 4.77675 11.4577 5.02193 11.3591C5.26711 11.2606 5.48982 11.1135 5.67666 10.9267C5.8635 10.7398 6.01062 10.5171 6.10915 10.2719C6.20768 10.0268 6.25559 9.76418 6.25 9.5M6.25 9.5C6.24441 9.76418 6.29232 10.0268 6.39085 10.2719C6.48938 10.5171 6.6365 10.7398 6.82334 10.9267C7.01018 11.1135 7.23289 11.2606 7.47807 11.3591C7.72325 11.4577 7.98582 11.5056 8.25 11.5M15.746 16.5C15.746 16.8978 15.904 17.2794 16.1853 17.5607C16.4666 17.842 16.8482 18 17.246 18C17.6438 18 18.0254 17.842 18.3067 17.5607C18.588 17.2794 18.746 16.8978 18.746 16.5C18.746 16.1022 18.588 15.7206 18.3067 15.4393C18.0254 15.158 17.6438 15 17.246 15C16.8482 15 16.4666 15.158 16.1853 15.4393C15.904 15.7206 15.746 16.1022 15.746 16.5ZM18.52 10.7L18.962 12.153C19.0349 12.3942 19.1967 12.5986 19.4147 12.7251C19.6326 12.8515 19.8904 12.8904 20.136 12.834L21.608 12.493C21.887 12.4301 22.1788 12.4582 22.4407 12.5732C22.7025 12.6882 22.9207 12.884 23.0632 13.1319C23.2058 13.3799 23.2652 13.6669 23.2327 13.9511C23.2003 14.2352 23.0777 14.5016 22.883 14.711L21.852 15.822C21.6799 16.007 21.5843 16.2503 21.5843 16.503C21.5843 16.7557 21.6799 16.999 21.852 17.184L22.883 18.295C23.0777 18.5045 23.2003 18.7708 23.2327 19.0549C23.2652 19.3391 23.2058 19.6261 23.0632 19.8741C22.9207 20.122 22.7025 20.3178 22.4407 20.4328C22.1788 20.5478 21.887 20.5759 21.608 20.513L20.136 20.172C19.8904 20.1156 19.6326 20.1545 19.4147 20.2809C19.1967 20.4074 19.0349 20.6118 18.962 20.853L18.52 22.3C18.4379 22.574 18.2695 22.8143 18.04 22.9851C17.8105 23.1559 17.5321 23.2481 17.246 23.2481C16.9599 23.2481 16.6815 23.1559 16.452 22.9851C16.2225 22.8143 16.0541 22.574 15.972 22.3L15.53 20.85C15.4571 20.6088 15.2953 20.4044 15.0773 20.2779C14.8594 20.1515 14.6016 20.1126 14.356 20.169L12.884 20.51C12.605 20.5729 12.3132 20.5448 12.0513 20.4298C11.7895 20.3148 11.5713 20.119 11.4288 19.8711C11.2862 19.6231 11.2268 19.3361 11.2593 19.0519C11.2917 18.7678 11.4143 18.5015 11.609 18.292L12.64 17.181C12.8121 16.996 12.9077 16.7527 12.9077 16.5C12.9077 16.2473 12.8121 16.004 12.64 15.819L11.609 14.708C11.4143 14.4985 11.2917 14.2322 11.2593 13.9481C11.2268 13.6639 11.2862 13.3769 11.4288 13.1289C11.5713 12.881 11.7895 12.6852 12.0513 12.5702C12.3132 12.4552 12.605 12.4271 12.884 12.49L14.356 12.831C14.6016 12.8874 14.8594 12.8485 15.0773 12.7221C15.2953 12.5956 15.4571 12.3912 15.53 12.15L15.972 10.697C16.0545 10.4231 16.2231 10.183 16.4528 10.0125C16.6825 9.84195 16.961 9.75003 17.2471 9.75037C17.5332 9.7507 17.8116 9.84328 18.0409 10.0143C18.2702 10.1854 18.4382 10.4259 18.52 10.7Z" stroke="#293D82" stroke-width="1.5" stroke-miterlimit="10" stroke-linecap="round" stroke-linejoin="round"/>
</svg>
