<svg width="18" height="18" viewBox="0 0 18 18" fill="none" xmlns="http://www.w3.org/2000/svg">
<g clip-path="url(#clip0_460_2110)">
<path d="M11.6367 2.93555H5.30859C4.18971 2.93555 3.11666 3.38002 2.32549 4.17119C1.53432 4.96236 1.08984 6.03541 1.08984 7.1543V14.5371M6.36328 2.93555L4.25391 1.35352M10.582 8.20898H7.41797V13.4824H10.582M9 4.42969V2.93555H5.83594V4.42969C5.35631 4.70504 4.95761 5.10178 4.67991 5.58005C4.4022 6.05831 4.25528 6.60125 4.25391 7.1543V15.5918C4.25391 15.8715 4.36502 16.1398 4.56282 16.3376C4.76061 16.5354 5.02887 16.6465 5.30859 16.6465H9.52734C9.80706 16.6465 10.0753 16.5354 10.2731 16.3376C10.4709 16.1398 10.582 15.8715 10.582 15.5918V7.1543C10.5807 6.60125 10.4337 6.05831 10.156 5.58005C9.87833 5.10178 9.47963 4.70504 9 4.42969ZM16.9102 4.51758L11.6367 3.99023V1.88086L16.9102 1.35352V4.51758Z" stroke="white" stroke-width="1.5" stroke-linecap="round" stroke-linejoin="round"/>
</g>
<defs>
<clipPath id="clip0_460_2110">
<rect width="18" height="18" fill="white"/>
</clipPath>
</defs>
</svg>
