<svg width="18" height="19" viewBox="0 0 18 19" fill="none" xmlns="http://www.w3.org/2000/svg">
<path d="M2.36931 3.68262C2.01754 3.68262 1.68018 3.82236 1.43144 4.07109C1.18271 4.31983 1.04297 4.65718 1.04297 5.00896V16.2828C1.04297 16.6346 1.18271 16.972 1.43144 17.2207C1.68018 17.4694 2.01754 17.6092 2.36931 17.6092H15.6327C15.9844 17.6092 16.3219 17.4694 16.5706 17.2207C16.8192 16.972 16.959 16.6346 16.959 16.2828V5.00896C16.959 4.65718 16.8192 4.31983 16.5706 4.07109C16.3219 3.82236 15.9844 3.68262 15.6327 3.68262H2.36931Z" stroke="#546E7A" stroke-width="1.5" stroke-linecap="round" stroke-linejoin="round"/>
<path d="M1.04297 8.3252H16.959" stroke="#546E7A" stroke-width="1.5" stroke-linecap="round" stroke-linejoin="round"/>
<path d="M4.35938 1.69336V5.67238" stroke="#546E7A" stroke-width="1.5" stroke-linecap="round" stroke-linejoin="round"/>
<path d="M13.6445 1.69336V5.67238" stroke="#546E7A" stroke-width="1.5" stroke-linecap="round" stroke-linejoin="round"/>
</svg>
