<svg width="24" height="24" viewBox="0 0 24 24" fill="none" xmlns="http://www.w3.org/2000/svg">
<path d="M17.6781 21.7357H6.31985C5.88952 21.7357 5.47681 21.5648 5.17251 21.2605C4.86821 20.9562 4.69727 20.5435 4.69727 20.1131V5.50977H19.3006V20.1131C19.3006 20.5435 19.1297 20.9562 18.8254 21.2605C18.521 21.5648 18.1084 21.7357 17.6781 21.7357Z" stroke="#546E7A" stroke-width="1.5" stroke-linecap="round" stroke-linejoin="round"/>
<path d="M9.56641 16.8678V10.3774" stroke="#546E7A" stroke-width="1.5" stroke-linecap="round" stroke-linejoin="round"/>
<path d="M14.4336 16.8678V10.3774" stroke="#546E7A" stroke-width="1.5" stroke-linecap="round" stroke-linejoin="round"/>
<path d="M1.45312 5.50952H22.5469" stroke="#546E7A" stroke-width="1.5" stroke-linecap="round" stroke-linejoin="round"/>
<path d="M14.4338 2.2644H9.56595C9.13562 2.2644 8.7229 2.43536 8.41861 2.73965C8.1143 3.04394 7.94336 3.45666 7.94336 3.887V5.5096H16.0563V3.887C16.0563 3.45666 15.8854 3.04394 15.5811 2.73965C15.2768 2.43536 14.8641 2.2644 14.4338 2.2644Z" stroke="#546E7A" stroke-width="1.5" stroke-linecap="round" stroke-linejoin="round"/>
</svg>
