<svg width="24" height="24" viewBox="0 0 24 24" fill="none" xmlns="http://www.w3.org/2000/svg">
<path d="M8.48047 19.7344H2.85547C2.48251 19.7344 2.12482 19.5862 1.8611 19.3225C1.59738 19.0588 1.44922 18.7011 1.44922 18.3281V2.85938C1.44922 2.48641 1.59738 2.12873 1.8611 1.86501C2.12482 1.60128 2.48251 1.45313 2.85547 1.45312H16.918C17.2909 1.45312 17.6486 1.60128 17.9123 1.86501C18.1761 2.12873 18.3242 2.48641 18.3242 2.85938V9.1875M8.48047 5.67188H14.1055M5.66797 9.89062H14.1055M5.66797 14.1094H12.6992M21.9627 14.6906L14.8123 21.8438L11.2967 22.5469L11.9998 19.0312L19.1539 11.8781C19.3379 11.6938 19.5564 11.5475 19.797 11.4478C20.0376 11.348 20.2955 11.2966 20.5559 11.2966C20.8164 11.2966 21.0743 11.348 21.3149 11.4478C21.5554 11.5475 21.774 11.6938 21.958 11.8781L21.9664 11.8856C22.3378 12.2581 22.546 12.7629 22.5453 13.2889C22.5446 13.8149 22.335 14.3191 21.9627 14.6906Z" stroke="#546E7A" stroke-width="1.5" stroke-linecap="round" stroke-linejoin="round"/>
</svg>
