<svg width="25" height="24" viewBox="0 0 25 24" fill="none" xmlns="http://www.w3.org/2000/svg">
<g opacity="0.5" clip-path="url(#clip0_1775_11886)">
<path d="M22.25 15.75H16.25C15.4216 15.75 14.75 16.4216 14.75 17.25V21.75C14.75 22.5784 15.4216 23.25 16.25 23.25H22.25C23.0784 23.25 23.75 22.5784 23.75 21.75V17.25C23.75 16.4216 23.0784 15.75 22.25 15.75Z" stroke="#546E7A" stroke-width="1.5" stroke-linecap="round" stroke-linejoin="round"/>
<path d="M19.25 11.25C18.4544 11.25 17.6913 11.5661 17.1287 12.1287C16.5661 12.6913 16.25 13.4544 16.25 14.25V15.75H22.25V14.25C22.25 13.4544 21.9339 12.6913 21.3713 12.1287C20.8087 11.5661 20.0456 11.25 19.25 11.25Z" stroke="#546E7A" stroke-width="1.5" stroke-linecap="round" stroke-linejoin="round"/>
<path d="M19.25 19.875C19.0429 19.875 18.875 19.7071 18.875 19.5C18.875 19.2929 19.0429 19.125 19.25 19.125" stroke="#546E7A" stroke-width="1.5"/>
<path d="M19.25 19.875C19.4571 19.875 19.625 19.7071 19.625 19.5C19.625 19.2929 19.4571 19.125 19.25 19.125" stroke="#546E7A" stroke-width="1.5"/>
<path d="M11.75 15.75H2.75C2.35218 15.75 1.97064 15.592 1.68934 15.3107C1.40804 15.0294 1.25 14.6478 1.25 14.25V2.25C1.25 1.85218 1.40804 1.47064 1.68934 1.18934C1.97064 0.908035 2.35218 0.75 2.75 0.75H20.75C21.1478 0.75 21.5294 0.908035 21.8107 1.18934C22.092 1.47064 22.25 1.85218 22.25 2.25V8.25" stroke="#546E7A" stroke-width="1.5" stroke-linecap="round" stroke-linejoin="round"/>
<path d="M21.9109 1.2998L13.7669 7.5638C13.1886 8.00866 12.4795 8.24986 11.7499 8.24986C11.0203 8.24986 10.3111 8.00866 9.73287 7.5638L1.58887 1.2998" stroke="#546E7A" stroke-width="1.5" stroke-linecap="round" stroke-linejoin="round"/>
</g>
<defs>
<clipPath id="clip0_1775_11886">
<rect width="24" height="24" fill="white" transform="translate(0.5)"/>
</clipPath>
</defs>
</svg>
