<svg width="128" height="128" viewBox="0 0 128 128" fill="none" xmlns="http://www.w3.org/2000/svg">
<path d="M19.0987 108.901C10.2181 100.021 4.17029 88.706 1.72013 76.3882C-0.730027 64.0704 0.527486 51.3027 5.33365 39.6996C10.1398 28.0965 18.2788 18.1791 28.7213 11.2017C39.1638 4.22421 51.4409 0.499999 64 0.5C76.5591 0.500001 88.8362 4.22421 99.2787 11.2017C109.721 18.1792 117.86 28.0965 122.666 39.6996C127.473 51.3027 128.73 64.0704 126.28 76.3882C123.83 88.706 117.782 100.021 108.901 108.901" stroke="#DD1322"/>
<path d="M85.8254 123.631C72.0917 128.658 57.0439 128.79 43.2242 124.005" stroke="#DD1322"/>
</svg>
