<svg width="16" height="16" viewBox="0 0 16 16" fill="none" xmlns="http://www.w3.org/2000/svg">
<g clip-path="url(#clip0_3002_16063)">
<path d="M15.0313 9.28931H13.1563V11.1643H10.3438V13.0393H7.53125V14.9143H3.78125M10.0288 7.89556L7.77313 7.52056L7.125 5.58243C8.03813 5.06056 7.90938 5.04493 8.9375 5.07056C9.18614 5.07056 9.4246 4.97178 9.60041 4.79597C9.77623 4.62015 9.875 4.3817 9.875 4.13306C9.875 3.88442 9.77623 3.64596 9.60041 3.47014C9.4246 3.29433 9.18614 3.19556 8.9375 3.19556C8.19613 3.18194 7.46029 3.32569 6.77855 3.61733C6.09681 3.90896 5.48466 4.34185 4.9825 4.88743C4.65875 5.23368 3.8625 6.00806 1.90625 6.00806C1.65761 6.00806 1.41915 6.10683 1.24334 6.28264C1.06752 6.45846 0.96875 6.69692 0.96875 6.94556C0.96875 7.1942 1.06752 7.43265 1.24334 7.60847C1.41915 7.78428 1.65761 7.88306 1.90625 7.88306C3.20713 7.93008 4.48975 7.56596 5.57188 6.84243L5.96688 8.02993L4.83688 8.93181C4.50705 9.1942 4.24078 9.52775 4.05799 9.90752C3.87519 10.2873 3.78059 10.7035 3.78125 11.1249V12.0993C3.78125 12.3479 3.88002 12.5864 4.05584 12.7622C4.23165 12.938 4.47011 13.0368 4.71875 13.0368C4.96739 13.0368 5.20585 12.938 5.38166 12.7622C5.55748 12.5864 5.65625 12.3479 5.65625 12.0993V11.1249C5.65586 10.9843 5.68738 10.8455 5.74844 10.7188C5.8095 10.5921 5.8985 10.481 6.00875 10.3937L7.32125 9.34243C7.32125 9.34243 9.76438 9.75556 9.875 9.75556C10.1104 9.75569 10.3373 9.66724 10.5105 9.50778C10.6837 9.34832 10.7906 9.12952 10.8099 8.89487C10.8292 8.66023 10.7595 8.42691 10.6146 8.2413C10.4698 8.05569 10.2604 7.93137 10.0281 7.89306L10.0288 7.89556ZM1.67188 2.72681C1.67188 3.16193 1.84473 3.57923 2.1524 3.8869C2.46008 4.19458 2.87738 4.36743 3.3125 4.36743C3.74762 4.36743 4.16492 4.19458 4.4726 3.8869C4.78027 3.57923 4.95313 3.16193 4.95313 2.72681C4.95313 2.29169 4.78027 1.87439 4.4726 1.56671C4.16492 1.25903 3.74762 1.08618 3.3125 1.08618C2.87738 1.08618 2.46008 1.25903 2.1524 1.56671C1.84473 1.87439 1.67188 2.29169 1.67188 2.72681ZM13.055 2.46368C13.0243 2.44956 12.9899 2.44576 12.9568 2.45286C12.9238 2.45996 12.894 2.47757 12.8718 2.50305C12.8496 2.52854 12.8363 2.56052 12.8338 2.59421C12.8314 2.62791 12.8399 2.66149 12.8581 2.68993C13.0349 2.9753 13.1336 3.30204 13.1446 3.63752C13.1556 3.97301 13.0783 4.3055 12.9206 4.60181C12.7304 4.46672 12.5813 4.28152 12.49 4.06681C12.4826 4.04591 12.4709 4.02682 12.4556 4.01077C12.4403 3.99472 12.4218 3.98208 12.4013 3.97368C12.3807 3.9651 12.3586 3.96104 12.3364 3.9618C12.3142 3.96255 12.2924 3.9681 12.2725 3.97806C11.9725 4.11307 11.7187 4.333 11.5423 4.61068C11.3659 4.88836 11.2747 5.21163 11.28 5.54056C11.28 5.78679 11.3285 6.0306 11.4227 6.25809C11.517 6.48557 11.6551 6.69227 11.8292 6.86638C12.0033 7.04049 12.21 7.1786 12.4375 7.27283C12.665 7.36706 12.9088 7.41556 13.155 7.41556C13.4012 7.41556 13.645 7.36706 13.8725 7.27283C14.1 7.1786 14.3067 7.04049 14.4808 6.86638C14.6549 6.69227 14.793 6.48557 14.8873 6.25809C14.9815 6.0306 15.03 5.78679 15.03 5.54056C15.0219 4.89422 14.8325 4.26313 14.4833 3.71916C14.1342 3.17519 13.6393 2.74019 13.055 2.46368Z" stroke="#DD1322" stroke-linecap="round" stroke-linejoin="round"/>
</g>
<defs>
<clipPath id="clip0_3002_16063">
<rect width="16" height="16" fill="white"/>
</clipPath>
</defs>
</svg>
