<svg width="16" height="16" viewBox="0 0 16 16" fill="none" xmlns="http://www.w3.org/2000/svg">
<path d="M11.1925 5.73512V2.63324C11.1938 2.48294 11.1515 2.3355 11.0707 2.20872C10.99 2.08195 10.8742 1.98128 10.7375 1.91887C9.26939 1.27803 7.68246 0.954515 6.08064 0.969491C4.47882 0.954515 2.89189 1.27803 1.42377 1.91887C1.28722 1.98153 1.17167 2.08227 1.09096 2.20898C1.01025 2.3357 0.967822 2.48301 0.968765 2.63324V6.62512C0.968589 7.88673 1.35072 9.11878 2.06479 10.1589C2.77885 11.1989 3.79134 11.9982 4.96877 12.4514L5.51501 12.6614C5.87846 12.8013 6.28094 12.8013 6.64439 12.6614M6.40564 10.4101L6.08064 10.5351M6.08064 10.5351L5.75377 10.4101C4.99104 10.1126 4.33544 9.5926 3.8722 8.91758C3.40896 8.24256 3.1595 7.44379 3.15627 6.62512V3.59699C4.06746 3.30363 5.01901 3.15495 5.97626 3.15637H6.18751C7.14405 3.15552 8.09479 3.30483 9.00501 3.59887V6.62512C9.00186 7.44381 8.75244 8.24262 8.28919 8.91765C7.82594 9.59269 7.17029 10.1127 6.40751 10.4101L6.08064 10.5351ZM6.08064 10.5351L5.75564 10.4101M12.1556 7.34762C12.1114 7.32714 12.062 7.32095 12.0141 7.3299C11.9662 7.33885 11.9223 7.3625 11.8885 7.39756C11.8546 7.43262 11.8326 7.47735 11.8254 7.52552C11.8181 7.5737 11.8261 7.62293 11.8481 7.66637C12.0735 8.14141 12.1821 8.66338 12.165 9.18888C12.148 9.71437 12.0057 10.2282 11.75 10.6876C11.4638 10.7098 11.1799 10.6224 10.9557 10.4431C10.7315 10.2638 10.5838 10.0061 10.5425 9.72199C10.1141 9.95617 9.76142 10.3079 9.52613 10.7357C9.29083 11.1636 9.18268 11.6497 9.21439 12.137C9.21456 12.9055 9.51997 13.6425 10.0635 14.1859C10.6069 14.7292 11.344 15.0345 12.1125 15.0345C12.8778 15.0241 13.6088 14.7155 14.1499 14.1744C14.6911 13.6332 14.9997 12.9022 15.01 12.137C15.104 11.1391 14.878 10.1372 14.3649 9.2762C13.8518 8.4152 13.078 7.73977 12.1556 7.34762Z" stroke="white" stroke-linecap="round" stroke-linejoin="round"/>
</svg>
