<svg width="16" height="16" viewBox="0 0 16 16" fill="none" xmlns="http://www.w3.org/2000/svg">
<g clip-path="url(#clip0_390_1722)">
<path fill-rule="evenodd" clip-rule="evenodd" d="M8 0C3.58173 0 0 3.58173 0 8C0 12.4183 3.58173 16 8 16C12.4183 16 16 12.4183 16 8C16 3.58173 12.4183 0 8 0ZM10.9937 5.00631C11.1468 5.15935 11.2002 5.38574 11.1318 5.59106L9.02438 11.9133C8.95382 12.1249 8.76646 12.2762 8.54463 12.3006C8.3228 12.3249 8.1071 12.2178 7.99229 12.0265L6.48525 9.51479L3.97351 8.00775C3.78215 7.89293 3.67514 7.67722 3.6995 7.45539C3.72384 7.23357 3.8751 7.04622 4.08681 6.97565L10.409 4.86826C10.6143 4.79982 10.8407 4.85326 10.9937 5.00631Z" fill="white"/>
</g>
<defs>
<clipPath id="clip0_390_1722">
<rect width="16" height="16" fill="white"/>
</clipPath>
</defs>
</svg>
