<svg width="15" height="15" viewBox="0 0 15 15" fill="none" xmlns="http://www.w3.org/2000/svg">
<path fill-rule="evenodd" clip-rule="evenodd" d="M8.3951 10.0576L9.39503 8.3822L9.65777 7.942L10.1506 8.0828L14.4448 9.30973L14.9911 9.4658L14.9235 10.03L14.506 13.5147L14.4317 14.1357L13.8072 14.1011C11.7342 13.9862 9.68143 13.4017 7.82223 12.3468C6.77377 11.7519 5.78777 11.0079 4.89524 10.1154C4.00271 9.22286 3.2587 8.23686 2.66383 7.18846C1.60891 5.32922 1.02442 3.27639 0.909587 1.2034L0.875 0.578985L1.49593 0.504591L4.98063 0.0871246L5.54483 0.0195312L5.70094 0.565911L6.92783 4.86002L7.06863 5.35292L6.62848 5.61563L4.95301 6.6156C5.39793 7.2828 5.91497 7.91653 6.50439 8.50593C7.0939 9.09546 7.72777 9.6126 8.3951 10.0576Z" fill="white"/>
</svg>
