<svg width="18" height="18" viewBox="0 0 18 18" fill="none" xmlns="http://www.w3.org/2000/svg">
<path d="M3.80982 5.2793H0.945312" stroke="white" stroke-width="1.5" stroke-linecap="round" stroke-linejoin="round"/>
<path d="M17.0532 5.2793H7.50391" stroke="white" stroke-width="1.5" stroke-linecap="round" stroke-linejoin="round"/>
<path d="M10.4953 12.8203H0.945312" stroke="white" stroke-width="1.5" stroke-linecap="round" stroke-linejoin="round"/>
<path d="M17.0533 12.8203H14.1895" stroke="white" stroke-width="1.5" stroke-linecap="round" stroke-linejoin="round"/>
<path d="M3.81055 5.17489C3.81055 5.41747 3.85833 5.65768 3.95116 5.8818C4.04399 6.10592 4.18006 6.30956 4.35159 6.48109C4.52313 6.65262 4.72677 6.78869 4.95088 6.88152C5.175 6.97436 5.41521 7.02214 5.6578 7.02214C5.90038 7.02214 6.14059 6.97436 6.36471 6.88152C6.58883 6.78869 6.79247 6.65262 6.964 6.48109C7.13553 6.30956 7.2716 6.10592 7.36443 5.8818C7.45727 5.65768 7.50505 5.41747 7.50505 5.17489C7.50505 4.9323 7.45727 4.69209 7.36443 4.46798C7.2716 4.24386 7.13553 4.04022 6.964 3.86868C6.79247 3.69715 6.58883 3.56108 6.36471 3.46825C6.14059 3.37542 5.90038 3.32764 5.6578 3.32764C5.41521 3.32764 5.175 3.37542 4.95088 3.46825C4.72677 3.56108 4.52313 3.69715 4.35159 3.86868C4.18006 4.04022 4.04399 4.24386 3.95116 4.46798C3.85833 4.69209 3.81055 4.9323 3.81055 5.17489Z" stroke="white" stroke-width="1.5"/>
<path d="M10.4961 12.8221C10.4961 13.312 10.6907 13.7819 11.0371 14.1283C11.3836 14.4747 11.8534 14.6694 12.3433 14.6694C12.8333 14.6694 13.3031 14.4747 13.6495 14.1283C13.996 13.7819 14.1906 13.312 14.1906 12.8221C14.1906 12.3322 13.996 11.8623 13.6495 11.5159C13.3031 11.1695 12.8333 10.9749 12.3433 10.9749C11.8534 10.9749 11.3836 11.1695 11.0371 11.5159C10.6907 11.8623 10.4961 12.3322 10.4961 12.8221Z" stroke="white" stroke-width="1.5"/>
</svg>
