<svg width="17" height="16" viewBox="0 0 17 16" fill="none" xmlns="http://www.w3.org/2000/svg">
<path d="M8.03136 3.8125C9.09386 4.59438 8.62448 6.22687 8.20698 6.85875C8.05532 6.75915 7.9253 6.63 7.82468 6.47901C7.72406 6.32803 7.65491 6.15831 7.62136 5.98C7.19135 6.12301 6.81782 6.39879 6.55455 6.76763C6.29128 7.13648 6.15186 7.57936 6.15636 8.0325C6.15636 8.6541 6.40329 9.25024 6.84282 9.68978C7.28236 10.1293 7.8785 10.3763 8.50011 10.3763C9.12171 10.3763 9.71785 10.1293 10.1574 9.68978C10.5969 9.25024 10.8439 8.6541 10.8439 8.0325C10.8439 6.14125 9.89261 4.24125 8.03136 3.8125Z" fill="#F1AE38" stroke="#DD1322" stroke-linecap="round" stroke-linejoin="round"/>
<path d="M8.5 1C9.23869 1 9.97014 1.14549 10.6526 1.42818C11.3351 1.71086 11.9551 2.12519 12.4775 2.64752C12.9998 3.16985 13.4141 3.78995 13.6968 4.47241C13.9795 5.15486 14.125 5.88631 14.125 6.625C14.125 11.5625 9.7925 14.3319 8.73188 14.9375C8.66112 14.9778 8.5811 14.999 8.49969 14.999C8.41827 14.999 8.33826 14.9778 8.2675 14.9375C7.20688 14.3325 2.875 11.5625 2.875 6.625C2.875 5.13316 3.46763 3.70242 4.52252 2.64752C5.57742 1.59263 7.00816 1 8.5 1Z" stroke="#DD1322" stroke-linecap="round" stroke-linejoin="round"/>
<path d="M8.03125 3.8125C9.09375 4.59438 8.62437 6.22687 8.20688 6.85875C8.05522 6.75915 7.9252 6.63 7.82458 6.47901C7.72396 6.32803 7.6548 6.15831 7.62125 5.98C7.19124 6.12301 6.81771 6.39879 6.55444 6.76763C6.29117 7.13648 6.15175 7.57936 6.15625 8.0325C6.15625 8.6541 6.40318 9.25024 6.84272 9.68978C7.28226 10.1293 7.8784 10.3763 8.5 10.3763C9.1216 10.3763 9.71774 10.1293 10.1573 9.68978C10.5968 9.25024 10.8438 8.6541 10.8438 8.0325C10.8438 6.14125 9.8925 4.24125 8.03125 3.8125Z" stroke="#DD1322" stroke-linecap="round" stroke-linejoin="round"/>
</svg>
