<svg width="16" height="16" viewBox="0 0 16 16" fill="none" xmlns="http://www.w3.org/2000/svg">
<path d="M10.3438 2.60938H4.71875C3.72419 2.60938 2.77036 3.00446 2.0671 3.70772C1.36384 4.41099 0.96875 5.36481 0.96875 6.35938V12.9219M5.65625 2.60938L3.78125 1.20312M9.40625 7.29688H6.59375V11.9844H9.40625M8 3.9375V2.60938H5.1875V3.9375C4.76117 4.18225 4.40676 4.53492 4.15992 4.96004C3.91307 5.38517 3.78247 5.86778 3.78125 6.35938V13.8594C3.78125 14.108 3.88002 14.3465 4.05584 14.5223C4.23165 14.6981 4.47011 14.7969 4.71875 14.7969H8.46875C8.71739 14.7969 8.95585 14.6981 9.13166 14.5223C9.30748 14.3465 9.40625 14.108 9.40625 13.8594V6.35938C9.40503 5.86778 9.27443 5.38517 9.02758 4.96004C8.78074 4.53492 8.42634 4.18225 8 3.9375ZM15.0313 4.01563L10.3438 3.54688V1.67188L15.0313 1.20312V4.01563Z" stroke="white" stroke-linecap="round" stroke-linejoin="round"/>
</svg>
