<svg width="16" height="16" viewBox="0 0 16 16" fill="none" xmlns="http://www.w3.org/2000/svg">
<g clip-path="url(#clip0_663_6500)">
<path d="M11.2813 4.47447V14.5688C11.2813 14.6932 11.2319 14.8124 11.144 14.9003C11.056 14.9882 10.9368 15.0376 10.8125 15.0376H3.3125C3.18818 15.0376 3.06895 14.9882 2.98104 14.9003C2.89314 14.8124 2.84375 14.6932 2.84375 14.5688V4.7251M2.84375 4.7251C3.34103 4.7251 3.81794 4.52755 4.16958 4.17592C4.52121 3.82429 4.71875 3.34738 4.71875 2.8501C4.71875 2.35282 4.52121 1.8759 4.16958 1.52427C3.81794 1.17264 3.34103 0.975098 2.84375 0.975098M2.84375 4.7251L10.3438 4.7251C10.841 4.7251 11.3179 4.52755 11.6696 4.17592C12.0212 3.82429 12.2188 3.34738 12.2188 2.8501C12.2188 2.35282 12.0212 1.8759 11.6696 1.52427C11.3179 1.17264 10.841 0.975098 10.3438 0.975098H2.84375M2.84375 0.975098C2.34647 0.975098 1.86956 1.17264 1.51792 1.52427C1.16629 1.8759 0.96875 2.35282 0.96875 2.8501V10.3501M6.125 7.5376L7.0625 8.4751L8.46875 7.06885M6.125 10.8188L7.0625 11.7563L8.46875 10.3501M13.1563 13.1626L14.0938 15.0376L15.0313 13.1626V7.06885C15.0313 6.82021 14.9325 6.58175 14.7567 6.40593C14.5808 6.23012 14.3424 6.13135 14.0938 6.13135C13.8451 6.13135 13.6067 6.23012 13.4308 6.40593C13.255 6.58175 13.1563 6.82021 13.1563 7.06885V13.1626Z" stroke="white" stroke-linecap="round" stroke-linejoin="round"/>
</g>
<defs>
<clipPath id="clip0_663_6500">
<rect width="16" height="16" fill="white"/>
</clipPath>
</defs>
</svg>
