<svg width="40" height="40" viewBox="0 0 40 40" fill="none" xmlns="http://www.w3.org/2000/svg">
<rect width="40" height="40" rx="20" fill="white"/>
<path fill-rule="evenodd" clip-rule="evenodd" d="M11 13C10.4477 13 10 13.4477 10 14C10 14.5523 10.4477 15 11 15H29C29.5523 15 30 14.5523 30 14C30 13.4477 29.5523 13 29 13H11ZM11 19C10.4477 19 10 19.4477 10 20C10 20.5523 10.4477 21 11 21H29C29.5523 21 30 20.5523 30 20C30 19.4477 29.5523 19 29 19H11ZM11 25C10.4477 25 10 25.4477 10 26C10 26.5523 10.4477 27 11 27H29C29.5523 27 30 26.5523 30 26C30 25.4477 29.5523 25 29 25H11Z" fill="#DD1322"/>
</svg>
