<svg width="16" height="16" viewBox="0 0 16 16" fill="none" xmlns="http://www.w3.org/2000/svg">
<path d="M13.9229 3.94653C13.8427 4.18344 13.6581 4.42325 13.4043 4.60571C13.1504 4.78825 12.8647 4.88696 12.6162 4.88696H5.11426C4.87826 4.88697 4.64497 4.93017 4.42285 5.00513L4.74512 4.05298C4.82531 3.81617 5.01 3.57619 5.26367 3.3938C5.51752 3.21134 5.80329 3.11353 6.05176 3.11353H13.5537C13.7894 3.11352 14.0223 3.06917 14.2441 2.99438L13.9229 3.94653Z" stroke="#DD1322"/>
<path d="M12.5889 7.94653C12.5087 8.18344 12.3241 8.42325 12.0703 8.60571C11.8164 8.78825 11.5307 8.88696 11.2822 8.88696H3.78027C3.54427 8.88697 3.31099 8.93017 3.08887 9.00513L3.41113 8.05298C3.49132 7.81617 3.67602 7.57618 3.92969 7.3938C4.18354 7.21134 4.46931 7.11353 4.71777 7.11353H12.2197C12.4555 7.11352 12.6883 7.06917 12.9102 6.99438L12.5889 7.94653Z" stroke="#DD1322"/>
<path d="M3.33008 11.1667H6.10254C6.0019 11.301 5.91371 11.4452 5.8457 11.5994L5.78027 11.7703L5.7793 11.7712L5.70898 11.9812C5.63078 12.214 5.45057 12.4496 5.20312 12.6287C4.9555 12.8078 4.67787 12.9041 4.4375 12.9041H2.41113C2.18451 12.9041 1.96063 12.9447 1.74707 13.0154L2.05859 12.0886C2.1368 11.8561 2.31736 11.6211 2.56445 11.4421C2.81199 11.263 3.08975 11.1668 3.33008 11.1667Z" stroke="#DD1322"/>
</svg>
