<svg width="24" height="24" viewBox="0 0 24 24" fill="none" xmlns="http://www.w3.org/2000/svg">
<g clip-path="url(#clip0_1455_16455)">
<path d="M19.7344 18.3282V19.7344C19.7344 20.1074 19.5862 20.4651 19.3225 20.7288C19.0588 20.9926 18.7011 21.1407 18.3281 21.1407H14.1094M14.1094 4.26569H18.3281C18.7011 4.26569 19.0588 4.41385 19.3225 4.67757C19.5862 4.94129 19.7344 5.29898 19.7344 5.67194V7.07819M19.7344 9.89069L22.5469 12.7032M22.5469 12.7032H14.8125M22.5469 12.7032L19.7344 15.5157M10.4906 22.5376L2.05316 21.3751C1.88508 21.3501 1.73169 21.2652 1.62139 21.1359C1.51109 21.0066 1.45133 20.8418 1.45317 20.6719V4.23752C1.45586 4.07916 1.51195 3.92634 1.61234 3.80383C1.71273 3.68131 1.85154 3.59629 2.00629 3.56252L10.4438 1.48128C10.5462 1.4589 10.6523 1.45973 10.7544 1.48369C10.8565 1.50765 10.952 1.55414 11.0338 1.61975C11.1156 1.68537 11.1817 1.76844 11.2272 1.86289C11.2727 1.95735 11.2965 2.0608 11.2969 2.16565V21.8532C11.2969 21.9538 11.2749 22.0532 11.2327 22.1445C11.1905 22.2358 11.1288 22.3168 11.0521 22.3818C10.9754 22.447 10.8855 22.4946 10.7886 22.5215C10.6915 22.5483 10.5899 22.5539 10.4906 22.5376ZM7.66406 12.3227C7.4699 12.3227 7.3125 12.1653 7.3125 11.9712C7.3125 11.777 7.4699 11.6196 7.66406 11.6196C7.85823 11.6196 8.01562 11.777 8.01562 11.9712C8.01562 12.1653 7.85823 12.3227 7.66406 12.3227Z" stroke="#090E1F" stroke-width="1.5" stroke-linecap="round" stroke-linejoin="round"/>
</g>
<defs>
<clipPath id="clip0_1455_16455">
<rect width="24" height="24" fill="white"/>
</clipPath>
</defs>
</svg>
