<svg width="16" height="16" viewBox="0 0 16 16" fill="none" xmlns="http://www.w3.org/2000/svg">
<path d="M13.9219 3.94629C13.8417 4.1832 13.6571 4.42301 13.4033 4.60547C13.1494 4.788 12.8638 4.88672 12.6152 4.88672H5.11328C4.87728 4.88672 4.644 4.92993 4.42188 5.00488L4.74414 4.05273C4.82433 3.81592 5.00902 3.57594 5.2627 3.39355C5.51654 3.21109 5.80232 3.11328 6.05078 3.11328H13.5527C13.7885 3.11328 14.0213 3.06893 14.2432 2.99414L13.9219 3.94629Z" stroke="white"/>
<path d="M12.5889 7.94629C12.5087 8.1832 12.3241 8.42301 12.0703 8.60547C11.8164 8.788 11.5307 8.88672 11.2822 8.88672H3.78027C3.54427 8.88672 3.31099 8.92993 3.08887 9.00488L3.41113 8.05273C3.49132 7.81592 3.67602 7.57594 3.92969 7.39355C4.18354 7.21109 4.46931 7.11328 4.71777 7.11328H12.2197C12.4555 7.11328 12.6883 7.06893 12.9102 6.99414L12.5889 7.94629Z" stroke="white"/>
<path d="M3.33105 11.167H6.10352C6.00287 11.3013 5.91468 11.4455 5.84668 11.5996L5.78125 11.7705L5.78027 11.7715L5.70996 11.9814C5.63176 12.2142 5.45154 12.4498 5.2041 12.6289C4.95648 12.8081 4.67884 12.9043 4.43848 12.9043H2.41211C2.18549 12.9044 1.9616 12.945 1.74805 13.0156L2.05957 12.0889C2.13777 11.8563 2.31834 11.6213 2.56543 11.4424C2.81297 11.2633 3.09073 11.1671 3.33105 11.167Z" stroke="white"/>
</svg>
