<svg width="16" height="16" viewBox="0 0 16 16" fill="none" xmlns="http://www.w3.org/2000/svg">
<path d="M4.2503 11.9529C3.97416 11.9529 3.7503 12.1768 3.7503 12.4529C3.7503 12.7291 3.97416 12.9529 4.2503 12.9529V11.9529ZM10.4509 12.4529L10.4511 11.9529H10.4509V12.4529ZM11.0559 12.2317L10.7333 11.8497L10.7333 11.8497L11.0559 12.2317ZM11.3753 11.6723L10.8824 11.5885L10.8824 11.5887L11.3753 11.6723ZM13.0234 1.98483L12.5305 1.90084L12.5305 1.90097L13.0234 1.98483ZM13.343 1.42583L13.6654 1.80797L13.6654 1.80797L13.343 1.42583ZM13.9478 1.20483L13.9477 1.70483H13.9478V1.20483ZM14.5628 1.70483C14.8389 1.70483 15.0628 1.48098 15.0628 1.20483C15.0628 0.928692 14.8389 0.704834 14.5628 0.704834V1.70483ZM11.7209 10.1406C11.997 10.1406 12.2209 9.91671 12.2209 9.64057C12.2209 9.36442 11.997 9.14057 11.7209 9.14057V10.1406ZM4.17651 9.64057L4.17644 10.1406H4.17651V9.64057ZM3.02284 9.24344L3.33056 8.84935L3.33051 8.84931L3.02284 9.24344ZM2.35776 8.22057L1.87269 8.34183L1.87271 8.3419L2.35776 8.22057ZM1.45151 4.59556L1.93658 4.47429L1.93656 4.47422L1.45151 4.59556ZM1.4477 4.38455L0.958581 4.2808L0.958572 4.28084L1.4477 4.38455ZM1.53684 4.19326L1.93088 4.50105L1.9309 4.50102L1.53684 4.19326ZM1.70086 4.06045L1.91993 4.50991L1.91995 4.5099L1.70086 4.06045ZM1.90651 4.01306L1.90625 4.51306H1.90651V4.01306ZM12.6777 4.51306C12.9539 4.51306 13.1777 4.2892 13.1777 4.01306C13.1777 3.73692 12.9539 3.51306 12.6777 3.51306V4.51306ZM4.2503 12.9529H10.4509V11.9529H4.2503V12.9529ZM10.4508 12.9529C10.7904 12.953 11.1191 12.8328 11.3785 12.6137L10.7333 11.8497C10.6543 11.9164 10.5543 11.953 10.4511 11.9529L10.4508 12.9529ZM11.3785 12.6137C11.638 12.3946 11.8114 12.0908 11.8683 11.756L10.8824 11.5887C10.8651 11.6906 10.8123 11.783 10.7333 11.8497L11.3785 12.6137ZM11.8682 11.7562L13.5163 2.06869L12.5305 1.90097L10.8824 11.5885L11.8682 11.7562ZM13.5163 2.06883C13.5337 1.96697 13.5865 1.87457 13.6654 1.80797L13.0206 1.04369C12.7611 1.26261 12.5876 1.56626 12.5305 1.90084L13.5163 2.06883ZM13.6654 1.80797C13.7444 1.74135 13.8444 1.70481 13.9477 1.70483L13.9479 0.704834C13.6085 0.704757 13.28 0.824797 13.0205 1.0437L13.6654 1.80797ZM13.9478 1.70483H14.5628V0.704834H13.9478V1.70483ZM5.42218 13.828C5.56889 13.828 5.6878 13.9469 5.6878 14.0936H4.6878C4.6878 14.4992 5.01658 14.828 5.42218 14.828V13.828ZM5.6878 14.0936C5.6878 14.2403 5.56889 14.3593 5.42218 14.3593V13.3593C5.01658 13.3593 4.6878 13.6881 4.6878 14.0936H5.6878ZM5.42218 14.828C5.82777 14.828 6.15655 14.4992 6.15655 14.0936H5.15655C5.15655 13.9469 5.27547 13.828 5.42218 13.828V14.828ZM6.15655 14.0936C6.15655 13.6881 5.82777 13.3593 5.42218 13.3593V14.3593C5.27547 14.3593 5.15655 14.2403 5.15655 14.0936H6.15655ZM10.1097 13.828C10.2564 13.828 10.3753 13.9469 10.3753 14.0936H9.3753C9.3753 14.4992 9.7041 14.828 10.1097 14.828V13.828ZM10.3753 14.0936C10.3753 14.2403 10.2564 14.3593 10.1097 14.3593V13.3593C9.7041 13.3593 9.3753 13.688 9.3753 14.0936H10.3753ZM10.1097 14.828C10.5153 14.828 10.8441 14.4992 10.8441 14.0936H9.84406C9.84406 13.9469 9.96297 13.828 10.1097 13.828V14.828ZM10.8441 14.0936C10.8441 13.688 10.5153 13.3593 10.1097 13.3593V14.3593C9.96297 14.3593 9.84406 14.2403 9.84406 14.0936H10.8441ZM11.7209 9.14057H4.17651V10.1406H11.7209V9.14057ZM4.17659 9.14057C3.86997 9.14052 3.57219 9.03803 3.33056 8.84935L2.71511 9.63753C3.13254 9.96348 3.6469 10.1405 4.17644 10.1406L4.17659 9.14057ZM3.33051 8.84931C3.08889 8.66069 2.91721 8.39665 2.84282 8.09923L1.87271 8.3419C2.00121 8.8556 2.29772 9.31169 2.71516 9.63757L3.33051 8.84931ZM2.84283 8.0993L1.93658 4.47429L0.966439 4.71683L1.87269 8.34183L2.84283 8.0993ZM1.93656 4.47422C1.93772 4.47885 1.9378 4.48365 1.93682 4.48826L0.958572 4.28084C0.928032 4.42488 0.930712 4.57401 0.966458 4.7169L1.93656 4.47422ZM1.93682 4.4883C1.93583 4.49296 1.93379 4.49732 1.93088 4.50105L1.1428 3.88547C1.05215 4.00152 0.989144 4.13672 0.958581 4.2808L1.93682 4.4883ZM1.9309 4.50102C1.92796 4.50478 1.92421 4.50782 1.91993 4.50991L1.48179 3.611C1.34939 3.67553 1.23345 3.76941 1.14278 3.8855L1.9309 4.50102ZM1.91995 4.5099C1.91567 4.51198 1.91098 4.51306 1.90625 4.51306L1.90677 3.51306C1.75952 3.51298 1.61417 3.54647 1.48177 3.61101L1.91995 4.5099ZM1.90651 4.51306H12.6777V3.51306H1.90651V4.51306Z" fill="#DD1322"/>
</svg>
