<svg width="22" height="22" viewBox="0 0 22 22" fill="none" xmlns="http://www.w3.org/2000/svg">
<path d="M5.37546 16.9295C4.96124 16.9295 4.62546 17.2653 4.62546 17.6795C4.62546 18.0937 4.96124 18.4295 5.37546 18.4295V16.9295ZM14.6764 17.6795L14.6766 16.9295H14.6764V17.6795ZM15.5839 17.3477L15.1 16.7746L15.1 16.7747L15.5839 17.3477ZM16.063 16.5086L15.3236 16.3828L15.3235 16.3831L16.063 16.5086ZM18.5351 1.97737L17.7958 1.85138L17.7958 1.85158L18.5351 1.97737ZM19.0145 1.13887L19.4981 1.71208L19.4982 1.71207L19.0145 1.13887ZM19.9217 0.807373L19.9215 1.55737H19.9217V0.807373ZM20.8442 1.55737C21.2584 1.55737 21.5942 1.22159 21.5942 0.807373C21.5942 0.39316 21.2584 0.0573731 20.8442 0.0573731V1.55737ZM16.5813 14.211C16.9955 14.211 17.3313 13.8752 17.3313 13.461C17.3313 13.0468 16.9955 12.711 16.5813 12.711V14.211ZM5.26477 13.461L5.26465 14.211H5.26477V13.461ZM3.53425 12.8653L3.99584 12.2741L3.99577 12.2741L3.53425 12.8653ZM2.53664 11.331L1.80903 11.5129L1.80906 11.513L2.53664 11.331ZM1.17727 5.89346L1.90487 5.71156L1.90485 5.71145L1.17727 5.89346ZM1.17155 5.57695L0.437872 5.42132L0.437858 5.42139L1.17155 5.57695ZM1.30526 5.29001L1.89632 5.75169L1.89636 5.75165L1.30526 5.29001ZM1.55129 5.0908L1.8799 5.76498L1.87992 5.76497L1.55129 5.0908ZM1.85977 5.01971L1.85937 5.76971H1.85977V5.01971ZM18.0166 5.76971C18.4308 5.76971 18.7666 5.43392 18.7666 5.01971C18.7666 4.6055 18.4308 4.26971 18.0166 4.26971V5.76971ZM5.37546 18.4295H14.6764V16.9295H5.37546V18.4295ZM14.6762 18.4295C15.1856 18.4297 15.6786 18.2493 16.0678 17.9207L15.1 16.7747C14.9814 16.8748 14.8315 16.9296 14.6766 16.9295L14.6762 18.4295ZM16.0678 17.9207C16.457 17.592 16.7171 17.1363 16.8024 16.6341L15.3235 16.3831C15.2976 16.536 15.2184 16.6747 15.1 16.7746L16.0678 17.9207ZM16.8023 16.6344L19.2745 2.10316L17.7958 1.85158L15.3236 16.3828L16.8023 16.6344ZM19.2745 2.10337C19.3005 1.95057 19.3798 1.81198 19.4981 1.71208L18.5308 0.565662C18.1417 0.894038 17.8813 1.34952 17.7958 1.85138L19.2745 2.10337ZM19.4982 1.71207C19.6166 1.61214 19.7666 1.55734 19.9215 1.55737L19.9219 0.0573731C19.4127 0.0572581 18.9199 0.237317 18.5308 0.565672L19.4982 1.71207ZM19.9217 1.55737H20.8442V0.0573731H19.9217V1.55737ZM7.13327 19.7421C7.35333 19.7421 7.53171 19.9205 7.53171 20.1406H6.03171C6.03171 20.7489 6.52488 21.2421 7.13327 21.2421V19.7421ZM7.53171 20.1406C7.53171 20.3606 7.35333 20.539 7.13327 20.539V19.039C6.52488 19.039 6.03171 19.5322 6.03171 20.1406H7.53171ZM7.13327 21.2421C7.74166 21.2421 8.23483 20.7489 8.23483 20.1406H6.73483C6.73483 19.9205 6.91321 19.7421 7.13327 19.7421V21.2421ZM8.23483 20.1406C8.23483 19.5322 7.74166 19.039 7.13327 19.039V20.539C6.91321 20.539 6.73483 20.3606 6.73483 20.1406H8.23483ZM14.1645 19.7421C14.3846 19.7421 14.563 19.9205 14.563 20.1406H13.063C13.063 20.7489 13.5561 21.2421 14.1645 21.2421V19.7421ZM14.563 20.1406C14.563 20.3606 14.3846 20.539 14.1645 20.539V19.039C13.5561 19.039 13.063 19.5322 13.063 20.1406H14.563ZM14.1645 21.2421C14.7729 21.2421 15.2661 20.7489 15.2661 20.1406H13.7661C13.7661 19.9205 13.9445 19.7421 14.1645 19.7421V21.2421ZM15.2661 20.1406C15.2661 19.5322 14.7729 19.039 14.1645 19.039V20.539C13.9445 20.539 13.7661 20.3606 13.7661 20.1406H15.2661ZM16.5813 12.711H5.26477V14.211H16.5813V12.711ZM5.26488 12.711C4.80495 12.7109 4.35829 12.5572 3.99584 12.2741L3.07267 13.4564C3.69881 13.9453 4.47036 14.2109 5.26465 14.211L5.26488 12.711ZM3.99577 12.2741C3.63333 11.9912 3.37582 11.5951 3.26422 11.149L1.80906 11.513C2.00181 12.2835 2.44658 12.9677 3.07274 13.4565L3.99577 12.2741ZM3.26425 11.1491L1.90487 5.71156L0.449659 6.07536L1.80903 11.5129L3.26425 11.1491ZM1.90485 5.71145C1.90658 5.71839 1.9067 5.7256 1.90524 5.73252L0.437858 5.42139C0.392048 5.63744 0.396068 5.86113 0.449686 6.07547L1.90485 5.71145ZM1.90522 5.73258C1.90374 5.73956 1.90069 5.7461 1.89632 5.75169L0.714203 4.82833C0.578231 5.00241 0.483716 5.2052 0.437872 5.42132L1.90522 5.73258ZM1.89636 5.75165C1.89194 5.7573 1.88631 5.76186 1.8799 5.76498L1.22269 4.41662C1.02409 4.51342 0.85017 4.65424 0.714171 4.82837L1.89636 5.75165ZM1.87992 5.76497C1.8735 5.7681 1.86647 5.76971 1.85937 5.76971L1.86016 4.26971C1.63928 4.26959 1.42125 4.31983 1.22266 4.41663L1.87992 5.76497ZM1.85977 5.76971H18.0166V4.26971H1.85977V5.76971Z" fill="#DD1322"/>
</svg>
