<svg width="24" height="24" viewBox="0 0 24 24" fill="none" xmlns="http://www.w3.org/2000/svg">
<path d="M18.4286 12.7822V3.33419C18.4286 2.9806 18.2931 2.64149 18.052 2.39147C17.8109 2.14144 17.4838 2.00098 17.1429 2.00098H6.85714C6.51615 2.00098 6.18912 2.14144 5.94801 2.39147C5.70689 2.64149 5.57143 2.9806 5.57143 3.33419V12.7822M15.264 15.3847L17.7857 17.9996M8.736 15.3847L6.21429 17.9996M12.1714 10.306C12.3571 10.5588 12.5987 10.7615 12.876 10.8969C13.1532 11.0323 13.4578 11.0964 13.764 11.0837C14.7403 11.0837 15.5323 10.4678 15.5323 9.70874C15.5323 8.94969 14.7429 8.33464 13.7674 8.33464C12.792 8.33464 12 7.71869 12 6.95876C12 6.19883 12.792 5.58377 13.7674 5.58377M13.7674 5.58377C14.0737 5.5709 14.3783 5.63488 14.6556 5.77028C14.9329 5.90568 15.1745 6.10849 15.36 6.36148M13.7674 5.58377V4.66741M13.7674 11.0837V12.0001M8.14286 5.33401H9.42857M8.14286 8.00044H9.42857M8.14286 10.6669H9.42857M19.9577 11.5246C20.0524 11.4467 20.1663 11.3981 20.2863 11.3843C20.4064 11.3705 20.5278 11.3921 20.6366 11.4466C20.7454 11.501 20.8372 11.5862 20.9015 11.6923C20.9657 11.7983 20.9999 11.921 21 12.0463V20.6678C21 21.0214 20.8645 21.3605 20.6234 21.6105C20.3823 21.8605 20.0553 22.001 19.7143 22.001H4.28571C3.94472 22.001 3.6177 21.8605 3.37658 21.6105C3.13546 21.3605 3 21.0214 3 20.6678V12.0463C3.00011 11.921 3.03425 11.7983 3.09852 11.6923C3.1628 11.5862 3.25459 11.501 3.36339 11.4466C3.47219 11.3921 3.59358 11.3705 3.71365 11.3843C3.83373 11.3981 3.94763 11.4467 4.04229 11.5246L10.4117 16.7632C10.8647 17.1321 11.424 17.3327 12 17.3327C12.576 17.3327 13.1353 17.1321 13.5883 16.7632L19.9577 11.5246Z" stroke="#090E1F" stroke-width="1.5" stroke-linecap="round" stroke-linejoin="round"/>
</svg>
