<svg width="22" height="24" viewBox="0 0 22 24" fill="none" xmlns="http://www.w3.org/2000/svg">
<path d="M10.9996 20.2219L3.27461 18.5625C2.97688 18.5121 2.67138 18.5344 2.38411 18.6274C2.09684 18.7205 1.83628 18.8815 1.62461 19.0969L0.958984 19.7719M14.4121 16.9969L17.5621 2.8875C17.6588 2.48693 17.8847 2.12938 18.205 1.8701C18.5253 1.61083 18.9221 1.46429 19.334 1.45312H21.0684M8.29023 16.5188L2.71211 15.1875C2.53165 15.1457 2.3613 15.0684 2.21099 14.9602C2.06067 14.8519 1.93339 14.7148 1.83655 14.5569C1.73971 14.399 1.67524 14.2234 1.64691 14.0404C1.61857 13.8573 1.62692 13.6704 1.67148 13.4906L4.11836 3.23438C4.2073 2.87249 4.43534 2.56027 4.75301 2.36546C5.07068 2.17064 5.45236 2.10894 5.81523 2.19375L12.6496 3.825C12.8294 3.86794 12.999 3.94591 13.1487 4.05447C13.2984 4.16303 13.4252 4.30003 13.5218 4.45764C13.6185 4.61525 13.6831 4.79037 13.712 4.97299C13.7409 5.1556 13.7335 5.34212 13.6902 5.52188L11.8996 13.0219M10.934 19.7344C10.934 20.4803 11.2303 21.1957 11.7577 21.7231C12.2852 22.2506 13.0006 22.5469 13.7465 22.5469C14.4924 22.5469 15.2078 22.2506 15.7352 21.7231C16.2627 21.1957 16.559 20.4803 16.559 19.7344C16.559 19.365 16.4862 18.9993 16.3449 18.6581C16.2036 18.3168 15.9964 18.0068 15.7352 17.7456C15.4741 17.4845 15.164 17.2773 14.8228 17.136C14.4816 16.9946 14.1158 16.9219 13.7465 16.9219C13.3771 16.9219 13.0114 16.9946 12.6702 17.136C12.329 17.2773 12.0189 17.4845 11.7577 17.7456C11.4966 18.0068 11.2894 18.3168 11.1481 18.6581C11.0067 18.9993 10.934 19.365 10.934 19.7344ZM6.50329 7.56729L7.68127 2.63411L11.1555 3.4637L9.97749 8.39688L6.50329 7.56729Z" stroke="#090E1F" stroke-width="1.5" stroke-linecap="round" stroke-linejoin="round"/>
</svg>
