<svg width="24" height="24" viewBox="0 0 24 24" fill="none" xmlns="http://www.w3.org/2000/svg">
<g clip-path="url(#clip0_1455_16451)">
<path d="M18.4809 20.3212C17.6318 19.4667 16.622 18.7886 15.5097 18.3259C14.3975 17.8631 13.2047 17.6249 12 17.6249C10.7953 17.6249 9.60252 17.8631 8.49026 18.3259C7.378 18.7886 6.36823 19.4667 5.51906 20.3212M1.45312 12C1.45313 14.7972 2.56431 17.4798 4.54223 19.4578C6.52016 21.4357 9.20279 22.5469 12 22.5469C14.7972 22.5469 17.4798 21.4357 19.4578 19.4578C21.4357 17.4798 22.5469 14.7972 22.5469 12C22.5469 9.20279 21.4357 6.52016 19.4578 4.54223C17.4798 2.56431 14.7972 1.45313 12 1.45312C9.20279 1.45313 6.52016 2.56431 4.54223 4.54223C2.56431 6.52016 1.45313 9.20279 1.45312 12ZM8.0625 11.8125C8.15625 13.875 9.84375 15.5625 11.9062 15.5625C14.0625 15.5625 15.75 13.875 15.75 11.7187V10.0313C15.75 7.875 14.0625 6.1875 11.9062 6.1875C9.84375 6.1875 8.15625 7.875 8.0625 9.9375V11.8125Z" stroke="#090E1F" stroke-width="1.5" stroke-miterlimit="10" stroke-linecap="round" stroke-linejoin="round"/>
</g>
<defs>
<clipPath id="clip0_1455_16451">
<rect width="24" height="24" fill="white"/>
</clipPath>
</defs>
</svg>
