<svg width="24" height="24" viewBox="0 0 24 24" fill="none" xmlns="http://www.w3.org/2000/svg">
<g clip-path="url(#clip0_1455_16430)">
<path d="M7.87559 17.25H4.31459C3.98967 17.244 3.67629 17.1285 3.42526 16.9221C3.17423 16.7158 3.00027 16.4306 2.93159 16.113L0.79359 7.113C0.736527 6.89752 0.728739 6.67195 0.770806 6.45305C0.812873 6.23414 0.903713 6.02753 1.03658 5.84855C1.16945 5.66957 1.34093 5.52282 1.53829 5.41919C1.73565 5.31557 1.95382 5.25774 2.17659 5.25H20.3246C20.5474 5.25774 20.7655 5.31557 20.9629 5.41919C21.1603 5.52282 21.3317 5.66957 21.4646 5.84855C21.5975 6.02753 21.6883 6.23414 21.7304 6.45305C21.7724 6.67195 21.7647 6.89752 21.7076 7.113L21.4076 8.369M3.75059 5.25L8.25059 0.75M18.7506 5.25L14.2506 0.752M17.2506 23.25L12.1366 17.915C11.6876 17.4659 11.3913 16.8869 11.2895 16.26C11.1877 15.6331 11.2857 14.9901 11.5696 14.422C11.7841 13.9932 12.0974 13.6215 12.4837 13.3376C12.8699 13.0536 13.3182 12.8655 13.7914 12.7888C14.2647 12.712 14.7494 12.7488 15.2056 12.8961C15.6619 13.0434 16.0766 13.297 16.4156 13.636L17.2506 14.471L18.0856 13.636C18.4245 13.297 18.8391 13.0434 19.2953 12.8961C19.7515 12.7488 20.2361 12.712 20.7093 12.7887C21.1825 12.8655 21.6306 13.0536 22.0168 13.3376C22.403 13.6215 22.7162 13.9932 22.9306 14.422C23.2149 14.9899 23.3132 15.633 23.2116 16.2599C23.11 16.8868 22.8137 17.4659 22.3646 17.915L17.2506 23.25Z" stroke="#090E1F" stroke-width="1.5" stroke-linecap="round" stroke-linejoin="round"/>
</g>
<defs>
<clipPath id="clip0_1455_16430">
<rect width="24" height="24" fill="white"/>
</clipPath>
</defs>
</svg>
