<svg width="16" height="16" viewBox="0 0 16 16" fill="none" xmlns="http://www.w3.org/2000/svg">
<g clip-path="url(#clip0_698_11208)">
<path d="M7.99941 13.4812L2.84941 12.375C2.65093 12.3414 2.44726 12.3563 2.25575 12.4183C2.06423 12.4803 1.89053 12.5877 1.74941 12.7312L1.30566 13.1812M10.2744 11.3313L12.3744 1.925C12.4389 1.65796 12.5895 1.41958 12.803 1.24674C13.0165 1.07389 13.2811 0.97619 13.5557 0.96875H14.7119M6.19316 11.0125L2.47441 10.125C2.35411 10.0971 2.24054 10.0456 2.14033 9.97344C2.04012 9.90127 1.95527 9.80989 1.89071 9.70461C1.82615 9.59934 1.78317 9.48228 1.76428 9.36024C1.74539 9.2382 1.75096 9.11362 1.78066 8.99375L3.41191 2.15625C3.47121 1.915 3.62323 1.70685 3.83502 1.57697C4.0468 1.4471 4.30125 1.40596 4.54316 1.4625L9.09942 2.55C9.2193 2.57862 9.33237 2.63061 9.43214 2.70298C9.53192 2.77535 9.61644 2.86669 9.68088 2.97176C9.74532 3.07683 9.7884 3.19358 9.80767 3.31532C9.82694 3.43707 9.82201 3.56141 9.79316 3.68125L8.59942 8.68125M7.95566 13.1563C7.95566 13.6535 8.15321 14.1304 8.50484 14.4821C8.85647 14.8337 9.33338 15.0313 9.83066 15.0313C10.3279 15.0313 10.8049 14.8337 11.1565 14.4821C11.5081 14.1304 11.7057 13.6535 11.7057 13.1563C11.7057 12.91 11.6572 12.6662 11.5629 12.4387C11.4687 12.2112 11.3306 12.0045 11.1565 11.8304C10.9824 11.6563 10.7757 11.5182 10.5482 11.424C10.3207 11.3297 10.0769 11.2813 9.83066 11.2813C9.58444 11.2813 9.34062 11.3297 9.11313 11.424C8.88565 11.5182 8.67895 11.6563 8.50484 11.8304C8.33073 12.0045 8.19262 12.2112 8.09839 12.4387C8.00416 12.6662 7.95566 12.91 7.95566 13.1563ZM5.00187 5.04486L5.78719 1.75607L8.10332 2.30913L7.318 5.59792L5.00187 5.04486Z" stroke="#DD1322" stroke-linecap="round" stroke-linejoin="round"/>
</g>
<defs>
<clipPath id="clip0_698_11208">
<rect width="16" height="16" fill="white"/>
</clipPath>
</defs>
</svg>
