<svg width="40" height="40" viewBox="0 0 40 40" fill="none" xmlns="http://www.w3.org/2000/svg">
<g clip-path="url(#clip0_1136_22421)">
<path d="M20.0013 38.3332C30.1265 38.3332 38.3346 30.125 38.3346 19.9998C38.3346 9.87462 30.1265 1.6665 20.0013 1.6665C9.87608 1.6665 1.66797 9.87462 1.66797 19.9998C1.66797 30.125 9.87608 38.3332 20.0013 38.3332Z" stroke="#DD1322" stroke-width="1.5" stroke-linecap="round" stroke-linejoin="round"/>
<path d="M19.9002 28.0852V17.8525C19.9002 17.4647 19.7462 17.093 19.4721 16.8188C19.1979 16.5446 18.8261 16.3906 18.4384 16.3906H16.9766" stroke="#DD1322" stroke-width="1.5" stroke-linecap="round" stroke-linejoin="round"/>
<path d="M19.1722 13.246C18.7686 13.246 18.4414 12.9188 18.4414 12.5151C18.4414 12.1114 18.7686 11.7842 19.1722 11.7842" stroke="#DD1322" stroke-width="1.5" stroke-linecap="round" stroke-linejoin="round"/>
<path d="M19.1719 13.246C19.5755 13.246 19.9029 12.9188 19.9029 12.5151C19.9029 12.1114 19.5755 11.7842 19.1719 11.7842" stroke="#DD1322" stroke-width="1.5" stroke-linecap="round" stroke-linejoin="round"/>
<path d="M16.9766 28.085H23.0199" stroke="#DD1322" stroke-width="1.5" stroke-linecap="round" stroke-linejoin="round"/>
</g>
<defs>
<clipPath id="clip0_1136_22421">
<rect width="40" height="40" fill="white"/>
</clipPath>
</defs>
</svg>
