<svg width="16" height="16" viewBox="0 0 16 16" fill="none" xmlns="http://www.w3.org/2000/svg">
<g clip-path="url(#clip0_1775_11877)">
<path d="M7.96339 11.3252V7.49537C7.96339 7.35024 7.90577 7.21105 7.80314 7.10849C7.70052 7.00587 7.56139 6.94824 7.41627 6.94824H6.86914" stroke="#8999B1" stroke-width="1.5" stroke-linecap="round" stroke-linejoin="round"/>
<path d="M7.68958 5.33033C7.53845 5.33033 7.41602 5.20785 7.41602 5.05677C7.41602 4.90568 7.53845 4.7832 7.68958 4.7832" stroke="#8999B1" stroke-width="1.5" stroke-linecap="round" stroke-linejoin="round"/>
<path d="M7.68945 5.33033C7.84058 5.33033 7.96302 5.20785 7.96302 5.05677C7.96302 4.90568 7.84058 4.7832 7.68945 4.7832" stroke="#8999B1" stroke-width="1.5" stroke-linecap="round" stroke-linejoin="round"/>
<path d="M8.00017 15.0179C11.876 15.0179 15.0179 11.876 15.0179 8.00017C15.0179 4.12437 11.876 0.982422 8.00017 0.982422C4.12437 0.982422 0.982422 4.12437 0.982422 8.00017C0.982422 11.876 4.12437 15.0179 8.00017 15.0179Z" stroke="#8999B1" stroke-width="1.5" stroke-linecap="round" stroke-linejoin="round"/>
<path d="M6.86914 11.3252H9.13102" stroke="#8999B1" stroke-width="1.5" stroke-linecap="round" stroke-linejoin="round"/>
</g>
<defs>
<clipPath id="clip0_1775_11877">
<rect width="16" height="16" fill="white"/>
</clipPath>
</defs>
</svg>
