<svg width="24" height="24" viewBox="0 0 24 24" fill="none" xmlns="http://www.w3.org/2000/svg">
<g clip-path="url(#clip0_1893_26378)">
<path d="M7.75456 12.2655C7.49093 12.0018 7.34283 11.6441 7.34283 11.2713C7.34283 10.8983 7.49093 10.5408 7.75456 10.2771C7.88524 10.1465 7.9889 9.99139 8.05964 9.82072C8.13036 9.65004 8.16676 9.46711 8.16676 9.28236C8.16676 9.09761 8.13036 8.91468 8.05964 8.74401C7.9889 8.57332 7.88524 8.41826 7.75456 8.28767L5.26831 5.80236C5.0046 5.53873 4.64698 5.39062 4.27409 5.39062C3.9012 5.39062 3.54359 5.53873 3.27988 5.80236L2.68925 6.39204C2.01012 7.07096 1.58292 7.96126 1.47826 8.91583C1.3736 9.87039 1.59773 10.8321 2.11363 11.6421L2.11925 11.6514C4.84379 15.6825 8.31583 19.1539 12.3474 21.8777L12.3568 21.8842C13.1668 22.4001 14.1285 22.624 15.0831 22.5191C16.0378 22.4143 16.9279 21.987 17.6068 21.3077L18.1964 20.718C18.3271 20.5874 18.4308 20.4323 18.5015 20.2616C18.5722 20.091 18.6087 19.9081 18.6087 19.7233C18.6087 19.5385 18.5722 19.3556 18.5015 19.1849C18.4308 19.0143 18.3271 18.8592 18.1964 18.7286L15.7093 16.2433C15.5787 16.1126 15.4236 16.0089 15.2529 15.9382C15.0823 15.8675 14.8993 15.8311 14.7146 15.8311C14.5298 15.8311 14.3469 15.8675 14.1763 15.9382C14.0055 16.0089 13.8505 16.1126 13.7199 16.2433C13.4562 16.5069 13.0985 16.6551 12.7257 16.6551C12.3528 16.6551 11.9952 16.5069 11.7314 16.2433" stroke="#293D82" stroke-width="1.5" stroke-linecap="round" stroke-linejoin="round"/>
<path d="M16.9219 9.53906C16.7277 9.53906 16.5703 9.38167 16.5703 9.1875C16.5703 8.99333 16.7277 8.83594 16.9219 8.83594" stroke="#293D82" stroke-width="1.5"/>
<path d="M16.9219 9.53906C17.116 9.53906 17.2734 9.38167 17.2734 9.1875C17.2734 8.99333 17.116 8.83594 16.9219 8.83594" stroke="#293D82" stroke-width="1.5"/>
<path d="M16.9219 1.45312C15.94 1.45318 14.9753 1.71025 14.1235 2.19877C13.2718 2.68731 12.5628 3.39027 12.0669 4.23777C11.5712 5.08528 11.3059 6.0478 11.2974 7.02965C11.2889 8.01149 11.5376 8.97845 12.0187 9.83438L10.5938 14.1094L14.7431 12.2653C15.5109 12.5873 16.3407 12.735 17.1726 12.6974C18.0044 12.6598 18.8175 12.4381 19.5532 12.0481C20.2889 11.6582 20.9288 11.1098 21.4268 10.4424C21.9248 9.77509 22.2685 9.00553 22.433 8.18928C22.5975 7.37303 22.5787 6.53043 22.378 5.72231C22.1773 4.91421 21.7997 4.16073 21.2724 3.51627C20.7452 2.87182 20.0814 2.35245 19.3291 1.99567C18.5768 1.63888 17.7546 1.45358 16.9219 1.45312Z" stroke="#293D82" stroke-width="1.5" stroke-linecap="round" stroke-linejoin="round"/>
<path d="M15.5156 5.67188C15.5156 5.39375 15.5981 5.12187 15.7526 4.89061C15.9071 4.65935 16.1268 4.47911 16.3837 4.37267C16.6407 4.26624 16.9235 4.23838 17.1962 4.29265C17.469 4.34691 17.7196 4.48084 17.9163 4.67751C18.1129 4.87418 18.2468 5.12474 18.3011 5.39754C18.3554 5.67032 18.3275 5.95307 18.2211 6.21003C18.1147 6.46698 17.9344 6.68661 17.7032 6.84113C17.4719 6.99566 17.2 7.07813 16.9219 7.07813" stroke="#293D82" stroke-width="1.5" stroke-linecap="round" stroke-linejoin="round"/>
</g>
<defs>
<clipPath id="clip0_1893_26378">
<rect width="24" height="24" fill="white"/>
</clipPath>
</defs>
</svg>
