<svg width="24" height="24" viewBox="0 0 24 24" fill="none" xmlns="http://www.w3.org/2000/svg">
<path d="M12.0016 20.2219L4.27656 18.5625C3.97883 18.5121 3.67334 18.5344 3.38606 18.6274C3.09879 18.7205 2.83824 18.8815 2.62656 19.0969L1.96094 19.7719M15.4141 16.9969L18.5641 2.8875C18.6607 2.48693 18.8867 2.12938 19.207 1.8701C19.5273 1.61083 19.924 1.46429 20.3359 1.45312H22.0703M9.29219 16.5188L3.71406 15.1875C3.5336 15.1457 3.36326 15.0684 3.21294 14.9602C3.06263 14.8519 2.93534 14.7148 2.8385 14.5569C2.74166 14.399 2.6772 14.2234 2.64886 14.0404C2.62052 13.8573 2.62888 13.6704 2.67344 13.4906L5.12031 3.23438C5.20925 2.87249 5.43729 2.56027 5.75497 2.36546C6.07264 2.17064 6.45431 2.10894 6.81719 2.19375L13.6516 3.825C13.8314 3.86794 14.001 3.94591 14.1507 4.05447C14.3003 4.16303 14.4271 4.30003 14.5238 4.45764C14.6204 4.61525 14.685 4.79037 14.7139 4.97299C14.7428 5.1556 14.7355 5.34212 14.6922 5.52188L12.9016 13.0219M11.9359 19.7344C11.9359 20.4803 12.2323 21.1957 12.7597 21.7231C13.2871 22.2506 14.0025 22.5469 14.7484 22.5469C15.4944 22.5469 16.2097 22.2506 16.7372 21.7231C17.2646 21.1957 17.5609 20.4803 17.5609 19.7344C17.5609 19.365 17.4882 18.9993 17.3468 18.6581C17.2055 18.3168 16.9983 18.0068 16.7372 17.7456C16.476 17.4845 16.166 17.2773 15.8247 17.136C15.4835 16.9946 15.1178 16.9219 14.7484 16.9219C14.3791 16.9219 14.0134 16.9946 13.6721 17.136C13.3309 17.2773 13.0209 17.4845 12.7597 17.7456C12.4985 18.0068 12.2914 18.3168 12.15 18.6581C12.0087 18.9993 11.9359 19.365 11.9359 19.7344ZM7.50524 7.56729L8.68322 2.63411L12.1574 3.4637L10.9794 8.39688L7.50524 7.56729Z" stroke="#293D82" stroke-width="1.5" stroke-linecap="round" stroke-linejoin="round"/>
</svg>
