<svg width="24" height="24" viewBox="0 0 24 24" fill="none" xmlns="http://www.w3.org/2000/svg">
<g clip-path="url(#clip0_1893_25676)">
<path d="M16.9219 6.71146V21.853C16.9219 22.0395 16.8478 22.2184 16.7159 22.3502C16.5841 22.4821 16.4052 22.5562 16.2188 22.5562H4.96875C4.78227 22.5562 4.60343 22.4821 4.47157 22.3502C4.3397 22.2184 4.26562 22.0395 4.26562 21.853V7.0874M4.26562 7.0874C5.01155 7.0874 5.72692 6.79109 6.25436 6.26364C6.78181 5.73619 7.07812 5.02082 7.07812 4.2749C7.07812 3.52898 6.78181 2.81361 6.25436 2.28616C5.72692 1.75872 5.01155 1.4624 4.26562 1.4624M4.26562 7.0874L15.5156 7.0874C16.2615 7.0874 16.9769 6.79109 17.5044 6.26364C18.0318 5.73619 18.3281 5.02082 18.3281 4.2749C18.3281 3.52898 18.0318 2.81361 17.5044 2.28616C16.9769 1.75872 16.2615 1.4624 15.5156 1.4624H4.26562M4.26562 1.4624C3.5197 1.4624 2.80433 1.75872 2.27689 2.28616C1.74944 2.81361 1.45313 3.52898 1.45312 4.2749V15.5249M9.1875 11.3062L10.5938 12.7124L12.7031 10.603M9.1875 16.228L10.5938 17.6343L12.7031 15.5249M19.7344 19.7437L21.1406 22.5562L22.5469 19.7437V10.603C22.5469 10.2301 22.3987 9.87238 22.135 9.60866C21.8713 9.34493 21.5136 9.19678 21.1406 9.19678C20.7677 9.19678 20.41 9.34493 20.1463 9.60866C19.8825 9.87238 19.7344 10.2301 19.7344 10.603V19.7437Z" stroke="#293D82" stroke-width="1.5" stroke-linecap="round" stroke-linejoin="round"/>
</g>
<defs>
<clipPath id="clip0_1893_25676">
<rect width="24" height="24" fill="white"/>
</clipPath>
</defs>
</svg>
