<svg width="16" height="16" viewBox="0 0 16 16" fill="none" xmlns="http://www.w3.org/2000/svg">
<path d="M13.9219 3.94678C13.8417 4.18368 13.6571 4.4235 13.4033 4.60596C13.1494 4.78849 12.8638 4.88721 12.6152 4.88721H5.11328C4.87728 4.88721 4.644 4.93042 4.42188 5.00537L4.74414 4.05322C4.82433 3.81641 5.00902 3.57643 5.2627 3.39404C5.51654 3.21158 5.80232 3.11377 6.05078 3.11377H13.5527C13.7885 3.11376 14.0213 3.06942 14.2432 2.99463L13.9219 3.94678Z" stroke="white"/>
<path d="M12.5889 7.94678C12.5087 8.18368 12.3241 8.4235 12.0703 8.60596C11.8164 8.78849 11.5307 8.88721 11.2822 8.88721H3.78027C3.54427 8.88721 3.31099 8.93042 3.08887 9.00537L3.41113 8.05322C3.49132 7.81641 3.67602 7.57643 3.92969 7.39404C4.18354 7.21158 4.46931 7.11377 4.71777 7.11377H12.2197C12.4555 7.11376 12.6883 7.06942 12.9102 6.99463L12.5889 7.94678Z" stroke="white"/>
<path d="M3.33105 11.1665H6.10352C6.00287 11.3008 5.91468 11.445 5.84668 11.5991L5.78125 11.77L5.78027 11.771L5.70996 11.981C5.63176 12.2137 5.45154 12.4494 5.2041 12.6284C4.95648 12.8076 4.67884 12.9038 4.43848 12.9038H2.41211C2.18549 12.9039 1.9616 12.9445 1.74805 13.0151L2.05957 12.0884C2.13777 11.8559 2.31834 11.6208 2.56543 11.4419C2.81297 11.2628 3.09073 11.1666 3.33105 11.1665Z" stroke="white"/>
</svg>
