<svg width="20" height="20" viewBox="0 0 20 20" fill="none" xmlns="http://www.w3.org/2000/svg">
<path d="M13.1256 11.8733L16.1256 11.8733C16.2481 11.8733 16.3688 11.9033 16.4771 11.9607C16.5854 12.0181 16.678 12.1012 16.7467 12.2026C16.8155 12.3041 16.8583 12.4209 16.8714 12.5427C16.8846 12.6646 16.8677 12.7878 16.8222 12.9016L13.1789 18.3441C13.1332 18.458 13.1162 18.5813 13.1293 18.7033C13.1424 18.8252 13.1852 18.9421 13.2539 19.0437C13.3227 19.1453 13.4153 19.2285 13.5237 19.2859C13.6321 19.3434 13.7529 19.3734 13.8756 19.3733H16.8756" stroke="#546E7A" stroke-width="1.25" stroke-linecap="round" stroke-linejoin="round"/>
<path d="M16.875 8.12333V2.5C16.875 2.00272 16.6775 1.52581 16.3258 1.17417C15.9742 0.822544 15.4973 0.625 15 0.625C14.5027 0.625 14.0258 0.822544 13.6742 1.17417C13.3225 1.52581 13.125 2.00272 13.125 2.5V8.125" stroke="#546E7A" stroke-width="1.25" stroke-linecap="round" stroke-linejoin="round"/>
<path d="M13.125 5.62329H16.875" stroke="#546E7A" stroke-width="1.25" stroke-linecap="round" stroke-linejoin="round"/>
<path d="M6.25 3.75L6.25 16.25" stroke="#546E7A" stroke-width="1.25" stroke-linecap="round" stroke-linejoin="round"/>
<path d="M3.75 13.75L6.25 16.25L8.75 13.75" stroke="#546E7A" stroke-width="1.25" stroke-linecap="round" stroke-linejoin="round"/>
</svg>
