<svg width="20" height="20" viewBox="0 0 20 20" fill="none" xmlns="http://www.w3.org/2000/svg">
<g clip-path="url(#clip0_862_15807)">
<path d="M7.51093 15.9901C7.27651 16.2244 6.95863 16.3561 6.62718 16.3561C6.29572 16.3561 5.97784 16.2244 5.74343 15.9901L1.26093 11.5084C1.14477 11.3923 1.05262 11.2545 0.989756 11.1028C0.92689 10.9511 0.894531 10.7885 0.894531 10.6242C0.894531 10.4601 0.92689 10.2974 0.989756 10.1457C1.05262 9.994 1.14477 9.85616 1.26093 9.74008L10.0109 0.990098C10.1271 0.874048 10.2649 0.782004 10.4166 0.719233C10.5683 0.656463 10.7309 0.624193 10.8951 0.624268L15.3767 0.624268C15.7083 0.624268 16.0262 0.755964 16.2606 0.990381C16.4951 1.22481 16.6267 1.54275 16.6267 1.87426V6.35676C16.6267 6.68806 16.4951 7.00576 16.2609 7.2401" stroke="#546E7A" stroke-width="1.25" stroke-linecap="round" stroke-linejoin="round"/>
<path d="M13.4922 4.06177C13.3196 4.06177 13.1797 3.92186 13.1797 3.74927C13.1797 3.57668 13.3196 3.43677 13.4922 3.43677" stroke="#546E7A" stroke-width="1.25" stroke-linecap="round" stroke-linejoin="round"/>
<path d="M13.4922 4.06177C13.6648 4.06177 13.8047 3.92186 13.8047 3.74927C13.8047 3.57668 13.6648 3.43677 13.4922 3.43677" stroke="#546E7A" stroke-width="1.25" stroke-linecap="round" stroke-linejoin="round"/>
<path d="M14.6857 9.73244L15.9699 13.1241H18.4699C18.596 13.119 18.7207 13.1529 18.8268 13.2214C18.9329 13.2899 19.0152 13.3894 19.0626 13.5064C19.11 13.6234 19.12 13.7523 19.0913 13.8752C19.0626 13.9982 18.9966 14.1093 18.9024 14.1933L16.7357 15.7058L17.9382 18.4674C17.9907 18.5939 18.0023 18.7336 17.9712 18.8669C17.9402 19.0003 17.8682 19.1206 17.7653 19.2109C17.6624 19.3012 17.5338 19.3569 17.3975 19.3704C17.2613 19.3839 17.1243 19.3543 17.0057 19.2858L14.0999 17.6516L11.1907 19.2858C11.0722 19.3543 10.9351 19.3839 10.7989 19.3704C10.6626 19.3569 10.5341 19.3012 10.4311 19.2109C10.3282 19.1206 10.2562 19.0003 10.2252 18.8669C10.1942 18.7336 10.2057 18.5939 10.2582 18.4674L11.4607 15.7058L9.29405 14.1933C9.19963 14.1097 9.1333 13.9989 9.1043 13.8761C9.0753 13.7533 9.08488 13.6245 9.13188 13.5074C9.17888 13.3904 9.26097 13.2907 9.3668 13.2221C9.47272 13.1534 9.59713 13.1193 9.72322 13.1241H12.2232L13.5107 9.73244C13.5677 9.62619 13.6525 9.53744 13.7559 9.47553C13.8594 9.41361 13.9776 9.38086 14.0982 9.38086C14.2188 9.38086 14.3371 9.41361 14.4406 9.47553C14.5441 9.53744 14.6287 9.62619 14.6857 9.73244Z" stroke="#546E7A" stroke-width="1.25" stroke-linecap="round" stroke-linejoin="round"/>
</g>
<defs>
<clipPath id="clip0_862_15807">
<rect width="20" height="20" fill="white"/>
</clipPath>
</defs>
</svg>
