<svg width="20" height="20" viewBox="0 0 20 20" fill="none" xmlns="http://www.w3.org/2000/svg">
<path d="M4.72656 8.24219H15.2734C15.2734 8.24219 16.4453 8.24219 16.4453 9.41406V17.6172C16.4453 17.6172 16.4453 18.7891 15.2734 18.7891H4.72656C4.72656 18.7891 3.55469 18.7891 3.55469 17.6172V9.41406C3.55469 9.41406 3.55469 8.24219 4.72656 8.24219Z" stroke="#546E7A" stroke-width="1.5" stroke-linecap="round" stroke-linejoin="round"/>
<path d="M5.89844 8.24219V5.3125C5.89844 4.2247 6.33056 3.18145 7.09976 2.41226C7.86895 1.64307 8.9122 1.21094 10 1.21094C11.0878 1.21094 12.1311 1.64307 12.9002 2.41226C13.6694 3.18145 14.1016 4.2247 14.1016 5.3125V8.24219" stroke="#546E7A" stroke-width="1.5" stroke-linecap="round" stroke-linejoin="round"/>
<path d="M10 12.3438V14.6875" stroke="#546E7A" stroke-width="1.5" stroke-linecap="round" stroke-linejoin="round"/>
</svg>
