<svg width="72" height="72" viewBox="0 0 72 72" fill="none" xmlns="http://www.w3.org/2000/svg">
<path d="M54.6875 2.96045H8.6875C7.1639 2.965 5.70401 3.57226 4.62666 4.64961C3.54931 5.72696 2.94205 7.18685 2.9375 8.71045V40.3354C2.94205 41.859 3.54931 43.3189 4.62666 44.3963C5.70401 45.4736 7.1639 46.0809 8.6875 46.0854H60.4375V8.71045C60.4375 7.18545 59.8317 5.72292 58.7534 4.64459C57.675 3.56625 56.2125 2.96045 54.6875 2.96045Z" fill="#D9E4DC"/>
<path d="M8.6875 2.96045C7.1639 2.965 5.70401 3.57226 4.62666 4.64961C3.54931 5.72696 2.94205 7.18685 2.9375 8.71045V40.3354C2.94113 41.2489 3.16235 42.1484 3.58282 42.9593C4.00329 43.7703 4.61092 44.4694 5.35538 44.9987L47.3936 2.96045H8.6875Z" fill="white"/>
<path d="M60.4141 8.6875V14.4375H2.91406V8.6875C2.91861 7.1639 3.52588 5.70401 4.60323 4.62666C5.68057 3.54931 7.14047 2.94205 8.66406 2.9375H54.6641C56.1891 2.9375 57.6516 3.5433 58.7299 4.62164C59.8083 5.69997 60.4141 7.16251 60.4141 8.6875Z" stroke="#090E1F" stroke-width="2" stroke-linecap="round" stroke-linejoin="round"/>
<path d="M51.8125 25.9375H46.0625" stroke="#090E1F" stroke-width="2" stroke-linecap="round" stroke-linejoin="round"/>
<path d="M31.6875 25.9375H8.6875" stroke="#090E1F" stroke-width="2" stroke-linecap="round" stroke-linejoin="round"/>
<path d="M17.3125 34.5625H8.6875" stroke="#090E1F" stroke-width="2" stroke-linecap="round" stroke-linejoin="round"/>
<path d="M60.4375 27.375V14.4375H2.9375V40.3125C2.9375 41.8375 3.5433 43.3 4.62164 44.3784C5.69997 45.4567 7.16251 46.0625 8.6875 46.0625H34.5625" stroke="#090E1F" stroke-width="2" stroke-linecap="round" stroke-linejoin="round"/>
<path d="M43.1641 48.9375C43.1641 48.175 43.467 47.4437 44.0061 46.9046C44.5453 46.3654 45.2766 46.0625 46.0391 46.0625H66.1641C66.9266 46.0625 67.6578 46.3654 68.197 46.9046C68.7362 47.4437 69.0391 48.175 69.0391 48.9375V66.1875C69.0391 66.95 68.7362 67.6813 68.197 68.2204C67.6578 68.7596 66.9266 69.0625 66.1641 69.0625H46.0391C45.2766 69.0625 44.5453 68.7596 44.0061 68.2204C43.467 67.6813 43.1641 66.95 43.1641 66.1875V48.9375Z" fill="#D9E4DC"/>
<path d="M66.1641 46.0625H46.0391C45.2766 46.0625 44.5453 46.3654 44.0061 46.9046C43.467 47.4437 43.1641 48.175 43.1641 48.9375V66.1875C43.1697 66.8286 43.3926 67.4489 43.7962 67.947C44.1998 68.4452 44.7604 68.7918 45.3864 68.9303L67.7252 46.5915C67.2701 46.2617 66.7259 46.0773 66.1641 46.0625Z" fill="#D9E4DC"/>
<path d="M43.1641 48.9375C43.1641 48.175 43.467 47.4437 44.0061 46.9046C44.5453 46.3654 45.2766 46.0625 46.0391 46.0625H66.1641C66.9266 46.0625 67.6578 46.3654 68.197 46.9046C68.7362 47.4437 69.0391 48.175 69.0391 48.9375V66.1875C69.0391 66.95 68.7362 67.6813 68.197 68.2204C67.6578 68.7596 66.9266 69.0625 66.1641 69.0625H46.0391C45.2766 69.0625 44.5453 68.7596 44.0061 68.2204C43.467 67.6813 43.1641 66.95 43.1641 66.1875V48.9375Z" stroke="#090E1F" stroke-width="2" stroke-linecap="round" stroke-linejoin="round"/>
<path d="M56.1016 61.3259C56.8123 61.3259 57.5072 61.1152 58.0981 60.7203C58.6891 60.3254 59.1498 59.7641 59.4218 59.1074C59.6938 58.4508 59.7649 57.7282 59.6263 57.0311C59.4876 56.334 59.1453 55.6936 58.6427 55.191C58.1401 54.6884 57.4998 54.3461 56.8027 54.2075C56.1055 54.0688 55.383 54.14 54.7263 54.412C54.0696 54.684 53.5084 55.1446 53.1135 55.7356C52.7186 56.3266 52.5078 57.0214 52.5078 57.7322C52.5078 58.6853 52.8864 59.5994 53.5604 60.2733C54.2344 60.9473 55.1484 61.3259 56.1016 61.3259Z" fill="#D9E4DC" stroke="#090E1F" stroke-width="2" stroke-linecap="round" stroke-linejoin="round"/>
<path d="M63.3125 41.75C63.3125 39.8438 62.5552 38.0156 61.2073 36.6677C59.8594 35.3198 58.0312 34.5625 56.125 34.5625C54.2188 34.5625 52.3906 35.3198 51.0427 36.6677C49.6948 38.0156 48.9375 39.8438 48.9375 41.75V46.0625H63.3125V41.75Z" stroke="#090E1F" stroke-width="2" stroke-linecap="round" stroke-linejoin="round"/>
</svg>
