<svg width="72" height="72" viewBox="0 0 72 72" fill="none" xmlns="http://www.w3.org/2000/svg">
<path d="M40.3125 48.2878V62.0878H31.6875V48.2878H40.3125Z" fill="#D9E4DC"/>
<path d="M63.3125 48.2878V62.0878H54.6875V48.2878H63.3125Z" fill="#D9E4DC"/>
<path d="M40.3125 48.2878V54.5065H31.6875V48.2878H40.3125Z" fill="#D9E4DC"/>
<path d="M63.3125 48.2878V54.5065H54.6875V48.2878H63.3125Z" fill="#D9E4DC"/>
<path d="M7.82422 15.1707L10.0035 5.47618C10.0948 5.1122 10.3249 4.79839 10.6445 4.60178C10.9642 4.40516 11.348 4.34133 11.7141 4.42393L36.8301 9.66793C37.0107 9.70156 37.1828 9.77094 37.3363 9.87198C37.4898 9.97302 37.6215 10.1037 37.7238 10.2563C37.8261 10.409 37.8969 10.5805 37.932 10.7609C37.9672 10.9412 37.9659 11.1268 37.9283 11.3067L34.7371 25.3626C34.6463 25.7264 34.417 26.0405 34.0979 26.2376C33.7788 26.4347 33.3954 26.4993 33.0293 26.4177L31.6867 26.1302" fill="#D9E4DC"/>
<path d="M7.82422 15.1707L10.0035 5.47618C10.0948 5.1122 10.3249 4.79839 10.6445 4.60178C10.9642 4.40516 11.348 4.34133 11.7141 4.42393L36.8301 9.66793C37.0107 9.70156 37.1828 9.77094 37.3363 9.87198C37.4898 9.97302 37.6215 10.1037 37.7238 10.2563C37.8261 10.409 37.8969 10.5805 37.932 10.7609C37.9672 10.9412 37.9659 11.1268 37.9283 11.3067L34.7371 25.3626C34.6463 25.7264 34.4169 26.0405 34.0979 26.2376C33.7788 26.4347 33.3954 26.4993 33.0293 26.4177L31.6867 26.1302" stroke="#090E1F" stroke-width="2" stroke-linecap="round" stroke-linejoin="round"/>
<path d="M46.6921 25.3395C46.9304 25.1887 47.2065 25.1086 47.4885 25.1086C47.7705 25.1086 48.0466 25.1887 48.2849 25.3395L68.4099 38.2166C68.6048 38.3389 68.7658 38.5084 68.8778 38.7094C68.9899 38.9104 69.0495 39.1365 69.051 39.3666V41.3791C69.0473 41.5641 69.0071 41.7466 68.9328 41.916C68.8586 42.0855 68.7516 42.2387 68.6181 42.3669C68.4846 42.495 68.3272 42.5956 68.1548 42.6629C67.9825 42.7302 67.7985 42.7629 67.6135 42.7591H27.375C27.19 42.7629 27.006 42.7302 26.8337 42.6629C26.6613 42.5956 26.5038 42.495 26.3704 42.3669C26.2369 42.2387 26.1299 42.0855 26.0557 41.916C25.9814 41.7466 25.9412 41.5641 25.9375 41.3791V38.7255L46.6921 25.3395Z" fill="#D9E4DC"/>
<path d="M38.875 30.3477L46.7036 25.3395C46.9419 25.1887 47.218 25.1086 47.5 25.1086C47.782 25.1086 48.0581 25.1887 48.2964 25.3395L68.4214 38.2166C68.6163 38.3389 68.7773 38.5084 68.8893 38.7094C69.0014 38.9104 69.061 39.1365 69.0625 39.3666V41.3791C69.0588 41.5641 69.0186 41.7466 68.9443 41.916C68.8701 42.0855 68.7631 42.2387 68.6296 42.3669C68.4961 42.495 68.3387 42.5956 68.1663 42.6629C67.994 42.7302 67.81 42.7629 67.625 42.7591H27.375C27.19 42.7629 27.006 42.7302 26.8337 42.6629C26.6613 42.5956 26.5038 42.495 26.3704 42.3669C26.2369 42.2387 26.1299 42.0855 26.0557 41.916C25.9814 41.7466 25.9412 41.5641 25.9375 41.3791" stroke="#090E1F" stroke-width="2" stroke-linecap="round" stroke-linejoin="round"/>
<path d="M24.5 67.6077H69.0625" stroke="#090E1F" stroke-width="2" stroke-linecap="round" stroke-linejoin="round"/>
<path d="M31.6875 62.0878V48.2878" stroke="#090E1F" stroke-width="2" stroke-linecap="round" stroke-linejoin="round"/>
<path d="M40.3125 62.0878V48.2878" stroke="#090E1F" stroke-width="2" stroke-linecap="round" stroke-linejoin="round"/>
<path d="M54.6875 62.0878V48.2878" stroke="#090E1F" stroke-width="2" stroke-linecap="round" stroke-linejoin="round"/>
<path d="M63.3125 62.0878V48.2878" stroke="#090E1F" stroke-width="2" stroke-linecap="round" stroke-linejoin="round"/>
<path d="M28.8125 48.2878H43.1875" stroke="#090E1F" stroke-width="2" stroke-linecap="round" stroke-linejoin="round"/>
<path d="M51.8125 48.2878H66.1875" stroke="#090E1F" stroke-width="2" stroke-linecap="round" stroke-linejoin="round"/>
<path d="M2.9375 16.6052C2.9375 16.224 3.08895 15.8583 3.35853 15.5888C3.62812 15.3192 3.99375 15.1677 4.375 15.1677H30.25C30.6312 15.1677 30.9969 15.3192 31.2665 15.5888C31.536 15.8583 31.6875 16.224 31.6875 16.6052V33.0502C31.6875 33.4315 31.536 33.7971 31.2665 34.0667C30.9969 34.3363 30.6312 34.4877 30.25 34.4877H4.375C3.99375 34.4877 3.62812 34.3363 3.35853 34.0667C3.08895 33.7971 2.9375 33.4315 2.9375 33.0502V16.6052Z" fill="#D9E4DC"/>
<path d="M4.375 15.1677C3.99375 15.1677 3.62812 15.3192 3.35853 15.5888C3.08895 15.8583 2.9375 16.224 2.9375 16.6052V33.0531C2.9375 33.4343 3.08895 33.8 3.35853 34.0696C3.62812 34.3391 3.99375 34.4906 4.375 34.4906H7.99463L27.3146 15.1677H4.375Z" fill="#D9E4DC"/>
<path d="M2.9375 16.6052C2.9375 16.224 3.08895 15.8583 3.35853 15.5888C3.62812 15.3192 3.99375 15.1677 4.375 15.1677H30.25C30.6312 15.1677 30.9969 15.3192 31.2665 15.5888C31.536 15.8583 31.6875 16.224 31.6875 16.6052V33.0502C31.6875 33.4315 31.536 33.7971 31.2665 34.0667C30.9969 34.3363 30.6312 34.4877 30.25 34.4877H4.375C3.99375 34.4877 3.62812 34.3363 3.35853 34.0667C3.08895 33.7971 2.9375 33.4315 2.9375 33.0502V16.6052Z" stroke="#090E1F" stroke-width="2" stroke-linecap="round" stroke-linejoin="round"/>
<path d="M17.3128 28.9677C17.8695 28.9884 18.4246 28.8967 18.945 28.698C19.4654 28.4993 19.9404 28.1977 20.3415 27.8112C20.7427 27.4247 21.0618 26.9613 21.2797 26.4487C21.4977 25.936 21.61 25.3847 21.61 24.8277C21.61 24.2706 21.4977 23.7193 21.2797 23.2067C21.0618 22.6941 20.7427 22.2307 20.3415 21.8442C19.9404 21.4577 19.4654 21.1561 18.945 20.9574C18.4246 20.7587 17.8695 20.6669 17.3128 20.6877C16.7562 20.6669 16.201 20.7587 15.6806 20.9574C15.1603 21.1561 14.6853 21.4577 14.2841 21.8442C13.883 22.2307 13.5639 22.6941 13.3459 23.2067C13.128 23.7193 13.0156 24.2706 13.0156 24.8277C13.0156 25.3847 13.128 25.936 13.3459 26.4487C13.5639 26.9613 13.883 27.4247 14.2841 27.8112C14.6853 28.1977 15.1603 28.4993 15.6806 28.698C16.201 28.8967 16.7562 28.9884 17.3128 28.9677Z" fill="white" stroke="#090E1F" stroke-width="2" stroke-linecap="round" stroke-linejoin="round"/>
</svg>
