<svg width="25" height="24" viewBox="0 0 25 24" fill="none" xmlns="http://www.w3.org/2000/svg">
<g opacity="0.5">
<path d="M15.5 15.75V20.518C15.5 20.8769 15.4293 21.2322 15.2919 21.5637C15.1546 21.8952 14.9533 22.1965 14.6995 22.4502C14.4457 22.7039 14.1444 22.9051 13.8128 23.0423C13.4812 23.1796 13.1259 23.2501 12.767 23.25H6.233C5.87414 23.2501 5.51878 23.1796 5.1872 23.0423C4.85563 22.9051 4.55433 22.7039 4.30054 22.4502C4.04674 22.1965 3.84542 21.8952 3.70806 21.5637C3.5707 21.2322 3.5 20.8769 3.5 20.518V4.983C3.5 4.25816 3.78794 3.56301 4.30048 3.05048C4.81301 2.53794 5.50816 2.25 6.233 2.25H9.5" stroke="#546E7A" stroke-width="1.5" stroke-linecap="round" stroke-linejoin="round"/>
<path d="M3.5 18.75H15.5" stroke="#546E7A" stroke-width="1.5" stroke-linecap="round" stroke-linejoin="round"/>
<path d="M20 5.25H14C13.1716 5.25 12.5 5.92157 12.5 6.75V11.25C12.5 12.0784 13.1716 12.75 14 12.75H20C20.8284 12.75 21.5 12.0784 21.5 11.25V6.75C21.5 5.92157 20.8284 5.25 20 5.25Z" stroke="#546E7A" stroke-width="1.5" stroke-linecap="round" stroke-linejoin="round"/>
<path d="M17 0.75C16.2044 0.75 15.4413 1.06607 14.8787 1.62868C14.3161 2.19129 14 2.95435 14 3.75V5.25H20V3.75C20 2.95435 19.6839 2.19129 19.1213 1.62868C18.5587 1.06607 17.7956 0.75 17 0.75Z" stroke="#546E7A" stroke-width="1.5" stroke-linecap="round" stroke-linejoin="round"/>
<path d="M17 9.40527C16.7929 9.40527 16.625 9.23738 16.625 9.03027C16.625 8.82316 16.7929 8.65527 17 8.65527" stroke="#546E7A" stroke-width="1.5"/>
<path d="M17 9.40527C17.2071 9.40527 17.375 9.23738 17.375 9.03027C17.375 8.82316 17.2071 8.65527 17 8.65527" stroke="#546E7A" stroke-width="1.5"/>
</g>
</svg>
