<svg width="16" height="15" viewBox="0 0 16 15" fill="none" xmlns="http://www.w3.org/2000/svg">
<path d="M4.2503 11.9532C3.97416 11.9532 3.7503 12.177 3.7503 12.4532C3.7503 12.7293 3.97416 12.9532 4.2503 12.9532V11.9532ZM10.4509 12.4532L10.4511 11.9532H10.4509V12.4532ZM11.0559 12.2319L10.7333 11.8499L10.7333 11.8499L11.0559 12.2319ZM11.3753 11.6726L10.8824 11.5887L10.8824 11.5889L11.3753 11.6726ZM13.0234 1.98508L12.5305 1.90108L12.5305 1.90122L13.0234 1.98508ZM13.343 1.42608L13.6654 1.80822L13.6654 1.80821L13.343 1.42608ZM13.9478 1.20508L13.9477 1.70508H13.9478V1.20508ZM14.5628 1.70508C14.8389 1.70508 15.0628 1.48122 15.0628 1.20508C15.0628 0.928936 14.8389 0.705078 14.5628 0.705078V1.70508ZM11.7209 10.1408C11.997 10.1408 12.2209 9.91695 12.2209 9.64081C12.2209 9.36467 11.997 9.14081 11.7209 9.14081V10.1408ZM4.17651 9.64081L4.17644 10.1408H4.17651V9.64081ZM3.02284 9.24368L3.33056 8.84959L3.33051 8.84956L3.02284 9.24368ZM2.35776 8.22081L1.87269 8.34208L1.87271 8.34214L2.35776 8.22081ZM1.45151 4.5958L1.93658 4.47454L1.93656 4.47446L1.45151 4.5958ZM1.4477 4.3848L0.958581 4.28104L0.958572 4.28109L1.4477 4.3848ZM1.53684 4.1935L1.93088 4.50129L1.9309 4.50126L1.53684 4.1935ZM1.70086 4.0607L1.91993 4.51015L1.91995 4.51014L1.70086 4.0607ZM1.90651 4.0133L1.90625 4.5133H1.90651V4.0133ZM12.6777 4.5133C12.9539 4.5133 13.1777 4.28945 13.1777 4.0133C13.1777 3.73716 12.9539 3.5133 12.6777 3.5133V4.5133ZM4.2503 12.9532H10.4509V11.9532H4.2503V12.9532ZM10.4508 12.9532C10.7904 12.9533 11.1191 12.8331 11.3785 12.6139L10.7333 11.8499C10.6543 11.9167 10.5543 11.9532 10.4511 11.9532L10.4508 12.9532ZM11.3785 12.6139C11.638 12.3948 11.8114 12.091 11.8683 11.7562L10.8824 11.5889C10.8651 11.6908 10.8123 11.7833 10.7333 11.8499L11.3785 12.6139ZM11.8682 11.7564L13.5163 2.06894L12.5305 1.90122L10.8824 11.5887L11.8682 11.7564ZM13.5163 2.06907C13.5337 1.96721 13.5865 1.87481 13.6654 1.80822L13.0206 1.04394C12.7611 1.26285 12.5876 1.56651 12.5305 1.90108L13.5163 2.06907ZM13.6654 1.80821C13.7444 1.74159 13.8444 1.70505 13.9477 1.70508L13.9479 0.705078C13.6085 0.705001 13.28 0.825041 13.0205 1.04394L13.6654 1.80821ZM13.9478 1.70508H14.5628V0.705078H13.9478V1.70508ZM5.42218 13.8282C5.56889 13.8282 5.6878 13.9472 5.6878 14.0939H4.6878C4.6878 14.4994 5.01658 14.8282 5.42218 14.8282V13.8282ZM5.6878 14.0939C5.6878 14.2406 5.56889 14.3595 5.42218 14.3595V13.3595C5.01658 13.3595 4.6878 13.6883 4.6878 14.0939H5.6878ZM5.42218 14.8282C5.82777 14.8282 6.15655 14.4994 6.15655 14.0939H5.15655C5.15655 13.9472 5.27547 13.8282 5.42218 13.8282V14.8282ZM6.15655 14.0939C6.15655 13.6883 5.82777 13.3595 5.42218 13.3595V14.3595C5.27547 14.3595 5.15655 14.2406 5.15655 14.0939H6.15655ZM10.1097 13.8282C10.2564 13.8282 10.3753 13.9472 10.3753 14.0939H9.3753C9.3753 14.4995 9.7041 14.8282 10.1097 14.8282V13.8282ZM10.3753 14.0939C10.3753 14.2406 10.2564 14.3595 10.1097 14.3595V13.3595C9.7041 13.3595 9.3753 13.6883 9.3753 14.0939H10.3753ZM10.1097 14.8282C10.5153 14.8282 10.8441 14.4995 10.8441 14.0939H9.84406C9.84406 13.9472 9.96297 13.8282 10.1097 13.8282V14.8282ZM10.8441 14.0939C10.8441 13.6883 10.5153 13.3595 10.1097 13.3595V14.3595C9.96297 14.3595 9.84406 14.2406 9.84406 14.0939H10.8441ZM11.7209 9.14081H4.17651V10.1408H11.7209V9.14081ZM4.17659 9.14081C3.86997 9.14076 3.57219 9.03827 3.33056 8.84959L2.71511 9.63777C3.13254 9.96372 3.6469 10.1407 4.17644 10.1408L4.17659 9.14081ZM3.33051 8.84956C3.08889 8.66093 2.91721 8.3969 2.84282 8.09947L1.87271 8.34214C2.00121 8.85585 2.29772 9.31194 2.71516 9.63781L3.33051 8.84956ZM2.84283 8.09954L1.93658 4.47454L0.966439 4.71707L1.87269 8.34208L2.84283 8.09954ZM1.93656 4.47446C1.93772 4.47909 1.9378 4.4839 1.93682 4.48851L0.958572 4.28109C0.928032 4.42512 0.930712 4.57425 0.966458 4.71714L1.93656 4.47446ZM1.93682 4.48855C1.93583 4.49321 1.93379 4.49756 1.93088 4.50129L1.1428 3.88572C1.05215 4.00177 0.989144 4.13696 0.958581 4.28104L1.93682 4.48855ZM1.9309 4.50126C1.92796 4.50503 1.92421 4.50807 1.91993 4.51015L1.48179 3.61124C1.34939 3.67578 1.23345 3.76965 1.14278 3.88574L1.9309 4.50126ZM1.91995 4.51014C1.91567 4.51223 1.91098 4.51331 1.90625 4.5133L1.90677 3.5133C1.75952 3.51323 1.61417 3.54671 1.48177 3.61125L1.91995 4.51014ZM1.90651 4.5133H12.6777V3.5133H1.90651V4.5133Z" fill="white"/>
</svg>
