<svg width="20" height="22" viewBox="0 0 20 22" fill="none" xmlns="http://www.w3.org/2000/svg">
<path d="M1.434 9.537C1.57471 9.09929 1.74958 8.67332 1.957 8.263M1.069 13.425C1.02274 13.0535 0.999697 12.6794 1 12.305C1 12.0137 1.01367 11.726 1.041 11.442M2.389 17.111C2.04819 16.5721 1.7656 15.9986 1.546 15.4M5.163 19.9C4.61966 19.5548 4.11479 19.1525 3.657 18.7M8.98 21.248C8.32986 21.1744 7.68972 21.0298 7.071 20.817M8 3.25H10C12.3038 3.25674 14.5179 4.14387 16.1889 5.72976C17.86 7.31565 18.8617 9.48033 18.9888 11.7806C19.116 14.0809 18.359 16.3428 16.8729 18.1032C15.3868 19.8636 13.284 20.9894 10.995 21.25M8 3.25L11.5 0.75M8 3.25L11.5 5.75" stroke="#293D82" stroke-width="1.5" stroke-linecap="round" stroke-linejoin="round"/>
</svg>
