<svg width="16" height="16" viewBox="0 0 16 16" fill="none" xmlns="http://www.w3.org/2000/svg">
<g clip-path="url(#clip0_1404_11020)">
<path d="M1.42001 8.84817C1.71096 9.53277 2.1339 10.1534 2.66468 10.6745C3.19546 11.1957 3.8237 11.6072 4.51351 11.8855C5.20332 12.1639 5.94121 12.3036 6.68504 12.2968C7.42886 12.29 8.16406 12.1367 8.84866 11.8458C9.53326 11.5548 10.1538 11.1319 10.675 10.6011C11.1961 10.0703 11.6076 9.44209 11.886 8.75228C12.1643 8.06246 12.3041 7.32458 12.2973 6.58075C12.2905 5.83693 12.1372 5.10173 11.8462 4.41713C11.5553 3.73253 11.1324 3.11194 10.6016 2.5908C10.0708 2.06965 9.44257 1.65815 8.75275 1.3798C8.06294 1.10144 7.32505 0.961684 6.58123 0.968499C5.8374 0.975315 5.1022 1.12857 4.4176 1.41952C3.733 1.71047 3.11242 2.13341 2.59127 2.66419C2.07013 3.19497 1.65863 3.82321 1.38028 4.51302C1.10193 5.20284 0.96217 5.94072 0.968988 6.68455C0.975805 7.42838 1.12906 8.16358 1.42001 8.84817Z" stroke="white" stroke-width="1.5" stroke-linecap="round" stroke-linejoin="round"/>
<path d="M10.6387 10.6375L15.0318 15.0312" stroke="white" stroke-width="1.5" stroke-linecap="round" stroke-linejoin="round"/>
</g>
<defs>
<clipPath id="clip0_1404_11020">
<rect width="16" height="16" fill="white"/>
</clipPath>
</defs>
</svg>
