<svg width="24" height="24" viewBox="0 0 24 24" fill="none" xmlns="http://www.w3.org/2000/svg">
<path d="M4.51783 13.0424C4.8517 13.8279 5.33703 14.5401 5.94612 15.1381C6.5552 15.7361 7.27611 16.2083 8.06769 16.5278C8.85926 16.8472 9.706 17.0075 10.5596 16.9997C11.4131 16.9919 12.2568 16.816 13.0424 16.4822C13.828 16.1483 14.5401 15.663 15.1381 15.0539C15.7361 14.4448 16.2083 13.7239 16.5278 12.9323C16.8472 12.1407 17.0076 11.294 16.9997 10.4404C16.9919 9.58689 16.816 8.74323 16.4822 7.95764C16.1483 7.17205 15.663 6.45992 15.0539 5.86189C14.4448 5.26386 13.7239 4.79166 12.9323 4.47225C12.1407 4.15283 11.294 3.99245 10.4404 4.00027C9.58688 4.00809 8.74322 4.18396 7.95763 4.51783C7.17204 4.85169 6.4599 5.33703 5.86188 5.94611C5.26385 6.5552 4.79165 7.27611 4.47224 8.06769C4.15282 8.85926 3.99245 9.706 4.00027 10.5596C4.0081 11.4131 4.18396 12.2568 4.51783 13.0424Z" stroke="#546E7A" stroke-width="2" stroke-linecap="round" stroke-linejoin="round"/>
<path d="M15.5 15.5L20 20" stroke="#546E7A" stroke-width="2" stroke-linecap="round" stroke-linejoin="round"/>
</svg>
