<svg width="24" height="24" viewBox="0 0 24 24" fill="none" xmlns="http://www.w3.org/2000/svg">
<g clip-path="url(#clip0_1893_19690)">
<path d="M2.13002 13.2723C2.56644 14.2992 3.20084 15.23 3.99702 16.0118C4.79319 16.7935 5.73554 17.4107 6.77026 17.8283C7.80499 18.2458 8.91181 18.4554 10.0276 18.4452C11.1433 18.435 12.2461 18.2051 13.273 17.7687C14.2999 17.3323 15.2308 16.6978 16.0125 15.9017C16.7942 15.1055 17.4114 14.1631 17.829 13.1284C18.2465 12.0937 18.4561 10.9869 18.4459 9.87113C18.4357 8.75539 18.2058 7.65259 17.7694 6.62569C17.333 5.5988 16.6985 4.66791 15.9024 3.88619C15.1062 3.10447 14.1639 2.48723 13.1291 2.0697C12.0944 1.65217 10.9876 1.44253 9.87184 1.45275C8.7561 1.46297 7.6533 1.69286 6.6264 2.12928C5.59951 2.5657 4.66863 3.20011 3.88691 3.99628C3.10519 4.79246 2.48795 5.73481 2.07042 6.76954C1.65289 7.80426 1.44326 8.91109 1.45348 10.0268C1.46371 11.1426 1.6936 12.2454 2.13002 13.2723Z" stroke="#546E7A" stroke-width="2" stroke-linecap="round" stroke-linejoin="round"/>
<path d="M15.957 15.9563L22.5467 22.5469" stroke="#546E7A" stroke-width="2" stroke-linecap="round" stroke-linejoin="round"/>
</g>
<defs>
<clipPath id="clip0_1893_19690">
<rect width="24" height="24" fill="white"/>
</clipPath>
</defs>
</svg>
