<svg width="17" height="16" viewBox="0 0 17 16" fill="none" xmlns="http://www.w3.org/2000/svg">
<path d="M8.49941 13.4812L3.34941 12.375C3.15093 12.3414 2.94726 12.3563 2.75575 12.4183C2.56423 12.4803 2.39053 12.5877 2.24941 12.7312L1.80566 13.1812M10.7744 11.3313L12.8744 1.925C12.9389 1.65796 13.0895 1.41958 13.303 1.24674C13.5165 1.07389 13.7811 0.97619 14.0557 0.96875H15.2119M6.69316 11.0125L2.97441 10.125C2.85411 10.0971 2.74054 10.0456 2.64033 9.97344C2.54012 9.90127 2.45527 9.80989 2.39071 9.70461C2.32615 9.59934 2.28317 9.48228 2.26428 9.36024C2.24539 9.2382 2.25096 9.11362 2.28066 8.99375L3.91191 2.15625C3.97121 1.915 4.12323 1.70685 4.33502 1.57697C4.5468 1.4471 4.80125 1.40596 5.04316 1.4625L9.59942 2.55C9.7193 2.57862 9.83237 2.63061 9.93214 2.70298C10.0319 2.77535 10.1164 2.86669 10.1809 2.97176C10.2453 3.07683 10.2884 3.19358 10.3077 3.31532C10.3269 3.43707 10.322 3.56141 10.2932 3.68125L9.09942 8.68125M8.45566 13.1563C8.45566 13.6535 8.65321 14.1304 9.00484 14.4821C9.35647 14.8337 9.83338 15.0313 10.3307 15.0313C10.8279 15.0313 11.3049 14.8337 11.6565 14.4821C12.0081 14.1304 12.2057 13.6535 12.2057 13.1563C12.2057 12.91 12.1572 12.6662 12.0629 12.4387C11.9687 12.2112 11.8306 12.0045 11.6565 11.8304C11.4824 11.6563 11.2757 11.5182 11.0482 11.424C10.8207 11.3297 10.5769 11.2813 10.3307 11.2813C10.0844 11.2813 9.84062 11.3297 9.61313 11.424C9.38565 11.5182 9.17895 11.6563 9.00484 11.8304C8.83073 12.0045 8.69262 12.2112 8.59839 12.4387C8.50416 12.6662 8.45566 12.91 8.45566 13.1563ZM5.50187 5.04486L6.28719 1.75607L8.60332 2.30913L7.818 5.59792L5.50187 5.04486Z" stroke="#DD1322" stroke-linecap="round" stroke-linejoin="round"/>
</svg>
