<svg width="33" height="32" viewBox="0 0 33 32" fill="none" xmlns="http://www.w3.org/2000/svg">
<g clip-path="url(#clip0_901_25523)">
<path d="M7.17274 5.13892H11.0061C11.0061 5.13892 13.5616 5.13892 13.5616 7.69447V28.1389C13.5616 28.1389 13.5616 30.6945 11.0061 30.6945H7.17274C7.17274 30.6945 4.61719 30.6945 4.61719 28.1389V7.69447C4.61719 7.69447 4.61719 5.13892 7.17274 5.13892Z" fill="#F5F7FE"/>
<path d="M13.5625 8.97217H30.1736C30.5125 8.97217 30.8375 9.10679 31.0771 9.34642C31.3168 9.58605 31.4514 9.91106 31.4514 10.2499V26.8611C31.4514 27.1999 31.3168 27.525 31.0771 27.7646C30.8375 28.0042 30.5125 28.1388 30.1736 28.1388H13.5625V8.97217Z" fill="#F5F7FE"/>
<path d="M4.61806 28.1388H3.34028C3.00139 28.1388 2.67638 28.0042 2.43675 27.7646C2.19712 27.525 2.0625 27.1999 2.0625 26.8611V10.2499C2.0625 9.91106 2.19712 9.58605 2.43675 9.34642C2.67638 9.10679 3.00139 8.97217 3.34028 8.97217H4.61806V28.1388Z" fill="#F5F7FE"/>
<path d="M16.1094 8.97233V2.58344C16.1094 2.24455 16.244 1.91955 16.4836 1.67992C16.7233 1.44029 17.0483 1.30566 17.3872 1.30566H25.2455C25.5353 1.30582 25.8165 1.40449 26.0428 1.5855L28.4131 3.47789C28.5627 3.59765 28.6834 3.74953 28.7664 3.92227C28.8493 4.09502 28.8923 4.28421 28.8923 4.47583V8.97233H16.1094Z" fill="#F5F7FE"/>
<path d="M17.3872 1.30566C17.0483 1.30566 16.7233 1.44029 16.4836 1.67992C16.244 1.91955 16.1094 2.24455 16.1094 2.58344V8.97233H18.1538L25.7272 1.40789C25.5764 1.34354 25.4146 1.30884 25.2506 1.30566H17.3872Z" fill="white"/>
<path d="M13.5694 7.69447V11.1061C13.5674 10.429 13.2975 9.78014 12.8187 9.30132C12.3399 8.8225 11.691 8.55261 11.0139 8.55058H7.18056C6.50278 8.55058 5.85276 8.81983 5.3735 9.29909C4.89425 9.77835 4.625 10.4284 4.625 11.1061V7.69447C4.625 7.0167 4.89425 6.36668 5.3735 5.88742C5.85276 5.40816 6.50278 5.13892 7.18056 5.13892H11.0139C11.691 5.14094 12.3399 5.41083 12.8187 5.88965C13.2975 6.36848 13.5674 7.01732 13.5694 7.69447Z" fill="white"/>
<path d="M31.4464 10.2499V13.6616C31.4464 13.3227 31.3118 12.9977 31.0722 12.7581C30.8325 12.5185 30.5075 12.3838 30.1686 12.3838H13.5703V8.97217H30.1686C30.5075 8.97217 30.8325 9.10679 31.0722 9.34642C31.3118 9.58605 31.4464 9.91106 31.4464 10.2499Z" fill="white"/>
<path d="M4.62302 8.97217V12.3838H3.33247C2.99358 12.3838 2.66857 12.5185 2.42894 12.7581C2.18931 12.9977 2.05469 13.3227 2.05469 13.6616V10.2499C2.05469 9.91106 2.18931 9.58605 2.42894 9.34642C2.66857 9.10679 2.99358 8.97217 3.33247 8.97217H4.62302Z" fill="white"/>
<path d="M17.3984 11.5278H27.6194V14.0834H17.3984V11.5278Z" fill="#D9E4DC"/>
<path d="M7.16493 5.13892H10.9983C10.9983 5.13892 13.5538 5.13892 13.5538 7.69447V28.1389C13.5538 28.1389 13.5538 30.6945 10.9983 30.6945H7.16493C7.16493 30.6945 4.60938 30.6945 4.60938 28.1389V7.69447C4.60938 7.69447 4.60938 5.13892 7.16493 5.13892Z" stroke="#293D82" stroke-width="1.5" stroke-linecap="round" stroke-linejoin="round"/>
<path d="M13.5547 8.97217H30.1658C30.5047 8.97217 30.8297 9.10679 31.0693 9.34642C31.309 9.58605 31.4436 9.91106 31.4436 10.2499V26.8611C31.4436 27.1999 31.309 27.525 31.0693 27.7646C30.8297 28.0042 30.5047 28.1388 30.1658 28.1388H13.5547" stroke="#293D82" stroke-width="1.5" stroke-linecap="round" stroke-linejoin="round"/>
<path d="M4.61024 28.1388H3.33247C2.99358 28.1388 2.66857 28.0042 2.42894 27.7646C2.18931 27.525 2.05469 27.1999 2.05469 26.8611V10.2499C2.05469 9.91106 2.18931 9.58605 2.42894 9.34642C2.66857 9.10679 2.99358 8.97217 3.33247 8.97217H4.61024" stroke="#293D82" stroke-width="1.5" stroke-linecap="round" stroke-linejoin="round"/>
<path d="M17.3906 11.5278H27.6116V14.0834H17.3906V11.5278Z" stroke="#293D82" stroke-width="1.5" stroke-linecap="round" stroke-linejoin="round"/>
<path d="M7.16406 5.139V1.30566" stroke="#293D82" stroke-width="1.5" stroke-linecap="round" stroke-linejoin="round"/>
<path d="M18.3507 17.2778C18.4139 17.2778 18.4756 17.2966 18.5282 17.3317C18.5807 17.3668 18.6216 17.4167 18.6458 17.475C18.67 17.5334 18.6763 17.5976 18.664 17.6596C18.6517 17.7216 18.6213 17.7785 18.5766 17.8232C18.5319 17.8678 18.475 17.8983 18.413 17.9106C18.351 17.9229 18.2868 17.9166 18.2284 17.8924C18.1701 17.8682 18.1202 17.8273 18.0851 17.7747C18.05 17.7222 18.0312 17.6605 18.0312 17.5973C18.0312 17.5126 18.0649 17.4313 18.1248 17.3714C18.1847 17.3115 18.266 17.2778 18.3507 17.2778Z" stroke="#293D82" stroke-width="1.5" stroke-linecap="round" stroke-linejoin="round"/>
<path d="M22.4991 17.2778C22.5623 17.2778 22.6241 17.2966 22.6766 17.3317C22.7291 17.3668 22.7701 17.4167 22.7943 17.475C22.8184 17.5334 22.8248 17.5976 22.8124 17.6596C22.8001 17.7216 22.7697 17.7785 22.725 17.8232C22.6803 17.8678 22.6234 17.8983 22.5615 17.9106C22.4995 17.9229 22.4353 17.9166 22.3769 17.8924C22.3185 17.8682 22.2686 17.8273 22.2335 17.7747C22.1984 17.7222 22.1797 17.6605 22.1797 17.5973C22.1797 17.5126 22.2133 17.4313 22.2733 17.3714C22.3332 17.3115 22.4144 17.2778 22.4991 17.2778Z" stroke="#293D82" stroke-width="1.5" stroke-linecap="round" stroke-linejoin="round"/>
<path d="M18.3507 20.7917C18.4139 20.7917 18.4756 20.8105 18.5282 20.8456C18.5807 20.8807 18.6216 20.9306 18.6458 20.9889C18.67 21.0473 18.6763 21.1115 18.664 21.1735C18.6517 21.2355 18.6213 21.2924 18.5766 21.3371C18.5319 21.3817 18.475 21.4122 18.413 21.4245C18.351 21.4368 18.2868 21.4305 18.2284 21.4063C18.1701 21.3821 18.1202 21.3412 18.0851 21.2887C18.05 21.2361 18.0312 21.1744 18.0312 21.1112C18.0312 21.0265 18.0649 20.9452 18.1248 20.8853C18.1847 20.8254 18.266 20.7917 18.3507 20.7917Z" stroke="#293D82" stroke-width="1.5" stroke-linecap="round" stroke-linejoin="round"/>
<path d="M22.4991 20.7917C22.5623 20.7917 22.6241 20.8105 22.6766 20.8456C22.7291 20.8807 22.7701 20.9306 22.7943 20.9889C22.8184 21.0473 22.8248 21.1115 22.8124 21.1735C22.8001 21.2355 22.7697 21.2924 22.725 21.3371C22.6803 21.3817 22.6234 21.4122 22.5615 21.4245C22.4995 21.4368 22.4353 21.4305 22.3769 21.4063C22.3185 21.3821 22.2686 21.3412 22.2335 21.2887C22.1984 21.2361 22.1797 21.1744 22.1797 21.1112C22.1797 21.0265 22.2133 20.9452 22.2733 20.8853C22.3332 20.8254 22.4144 20.7917 22.4991 20.7917Z" stroke="#293D82" stroke-width="1.5" stroke-linecap="round" stroke-linejoin="round"/>
<path d="M18.3507 24.3057C18.4139 24.3057 18.4756 24.3244 18.5282 24.3595C18.5807 24.3946 18.6216 24.4445 18.6458 24.5029C18.67 24.5612 18.6763 24.6255 18.664 24.6874C18.6517 24.7494 18.6213 24.8063 18.5766 24.851C18.5319 24.8957 18.475 24.9261 18.413 24.9384C18.351 24.9507 18.2868 24.9444 18.2284 24.9202C18.1701 24.8961 18.1202 24.8551 18.0851 24.8026C18.05 24.75 18.0312 24.6883 18.0312 24.6251C18.0312 24.5404 18.0649 24.4591 18.1248 24.3992C18.1847 24.3393 18.266 24.3057 18.3507 24.3057Z" stroke="#293D82" stroke-width="1.5" stroke-linecap="round" stroke-linejoin="round"/>
<path d="M26.6554 17.2778C26.5922 17.2778 26.5304 17.2966 26.4779 17.3317C26.4254 17.3668 26.3844 17.4167 26.3603 17.475C26.3361 17.5334 26.3297 17.5976 26.3421 17.6596C26.3544 17.7216 26.3848 17.7785 26.4295 17.8232C26.4742 17.8678 26.5311 17.8983 26.5931 17.9106C26.655 17.9229 26.7193 17.9166 26.7776 17.8924C26.836 17.8682 26.8859 17.8273 26.921 17.7747C26.9561 17.7222 26.9748 17.6605 26.9748 17.5973C26.9748 17.5126 26.9412 17.4313 26.8813 17.3714C26.8214 17.3115 26.7401 17.2778 26.6554 17.2778Z" stroke="#293D82" stroke-width="1.5" stroke-linecap="round" stroke-linejoin="round"/>
<path d="M26.6554 20.7917C26.5922 20.7917 26.5304 20.8105 26.4779 20.8456C26.4254 20.8807 26.3844 20.9306 26.3603 20.9889C26.3361 21.0473 26.3297 21.1115 26.3421 21.1735C26.3544 21.2355 26.3848 21.2924 26.4295 21.3371C26.4742 21.3817 26.5311 21.4122 26.5931 21.4245C26.655 21.4368 26.7193 21.4305 26.7776 21.4063C26.836 21.3821 26.8859 21.3412 26.921 21.2887C26.9561 21.2361 26.9748 21.1744 26.9748 21.1112C26.9748 21.0265 26.9412 20.9452 26.8813 20.8853C26.8214 20.8254 26.7401 20.7917 26.6554 20.7917Z" stroke="#293D82" stroke-width="1.5" stroke-linecap="round" stroke-linejoin="round"/>
<path d="M26.6554 24.3057C26.5922 24.3057 26.5304 24.3244 26.4779 24.3595C26.4254 24.3946 26.3844 24.4445 26.3603 24.5029C26.3361 24.5612 26.3297 24.6255 26.3421 24.6874C26.3544 24.7494 26.3848 24.8063 26.4295 24.851C26.4742 24.8957 26.5311 24.9261 26.5931 24.9384C26.655 24.9507 26.7193 24.9444 26.7776 24.9202C26.836 24.8961 26.8859 24.8551 26.921 24.8026C26.9561 24.75 26.9748 24.6883 26.9748 24.6251C26.9748 24.5404 26.9412 24.4591 26.8813 24.3992C26.8214 24.3393 26.7401 24.3057 26.6554 24.3057Z" stroke="#293D82" stroke-width="1.5" stroke-linecap="round" stroke-linejoin="round"/>
<path d="M22.4991 24.3057C22.5623 24.3057 22.6241 24.3244 22.6766 24.3595C22.7291 24.3946 22.7701 24.4445 22.7943 24.5029C22.8184 24.5612 22.8248 24.6255 22.8124 24.6874C22.8001 24.7494 22.7697 24.8063 22.725 24.851C22.6803 24.8957 22.6234 24.9261 22.5615 24.9384C22.4995 24.9507 22.4353 24.9444 22.3769 24.9202C22.3185 24.8961 22.2686 24.8551 22.2335 24.8026C22.1984 24.75 22.1797 24.6883 22.1797 24.6251C22.1797 24.5404 22.2133 24.4591 22.2733 24.3992C22.3332 24.3393 22.4144 24.3057 22.4991 24.3057Z" stroke="#293D82" stroke-width="1.5" stroke-linecap="round" stroke-linejoin="round"/>
<path d="M16.1094 6.41678V2.58344C16.1094 2.24455 16.244 1.91955 16.4836 1.67992C16.7233 1.44029 17.0483 1.30566 17.3872 1.30566H25.2442C25.5345 1.30553 25.8161 1.40422 26.0428 1.5855L28.408 3.47789C28.5576 3.59765 28.6783 3.74953 28.7613 3.92227C28.8442 4.09502 28.8872 4.28421 28.8872 4.47583V6.41678" stroke="#293D82" stroke-width="1.5" stroke-linecap="round" stroke-linejoin="round"/>
<path d="M18.6641 3.86108H23.1363" stroke="#293D82" stroke-width="1.5" stroke-linecap="round" stroke-linejoin="round"/>
<path d="M18.6641 6.41675H26.3307" stroke="#293D82" stroke-width="1.5" stroke-linecap="round" stroke-linejoin="round"/>
</g>
<defs>
<clipPath id="clip0_901_25523">
<rect width="32" height="32" fill="white" transform="translate(0.75)"/>
</clipPath>
</defs>
</svg>
