<svg width="33" height="32" viewBox="0 0 33 32" fill="none" xmlns="http://www.w3.org/2000/svg">
<path d="M11.7786 1.30566C9.23699 1.30566 6.79943 2.31533 5.00221 4.11256C3.20498 5.90978 2.19531 8.34734 2.19531 10.889C2.19531 15.4213 9.22309 26.7104 11.2407 29.864C11.2985 29.9542 11.3781 30.0284 11.4721 30.0799C11.5661 30.1313 11.6715 30.1582 11.7786 30.1582C11.8858 30.1582 11.9912 30.1313 12.0852 30.0799C12.1792 30.0284 12.2588 29.9542 12.3166 29.864C15.1852 25.3879 21.362 15.1351 21.362 10.889C21.362 8.34734 20.3523 5.90978 18.5551 4.11256C16.7579 2.31533 14.3203 1.30566 11.7786 1.30566ZM11.7786 14.7223C11.0205 14.7223 10.2793 14.4975 9.64896 14.0763C9.01857 13.6551 8.52724 13.0564 8.23711 12.356C7.94697 11.6555 7.87106 10.8847 8.01897 10.1412C8.16688 9.39756 8.53197 8.71452 9.06807 8.17842C9.60417 7.64232 10.2872 7.27723 11.0308 7.12932C11.7744 6.98141 12.5451 7.05732 13.2456 7.34746C13.946 7.6376 14.5447 8.12892 14.9659 8.75931C15.3872 9.3897 15.612 10.1308 15.612 10.889C15.612 11.9057 15.2081 12.8807 14.4892 13.5996C13.7703 14.3185 12.7953 14.7223 11.7786 14.7223Z" fill="#D9E4DC"/>
<path d="M21.2917 9.77203C21.0087 7.44816 19.8849 5.30825 18.1324 3.75616C16.3798 2.20407 14.1197 1.34717 11.7787 1.34717C9.43764 1.34717 7.17757 2.20407 5.42501 3.75616C3.67245 5.30825 2.54862 7.44816 2.26562 9.77203C4.11507 10.4027 6.02491 10.8399 7.96451 11.0766C7.96451 11.0128 7.94535 10.9489 7.94535 10.8888C7.94535 9.87215 8.34922 8.89712 9.06811 8.17823C9.78699 7.45934 10.762 7.05548 11.7787 7.05548C12.7953 7.05548 13.7704 7.45934 14.4893 8.17823C15.2081 8.89712 15.612 9.87215 15.612 10.8888C15.612 10.9527 15.5967 11.0166 15.5928 11.0766C17.5325 10.8399 19.4423 10.4027 21.2917 9.77203Z" fill="#F5F7FE"/>
<path d="M13.6953 27.6662C13.1331 28.5811 12.6552 29.3363 12.3166 29.864C12.2588 29.9542 12.1792 30.0284 12.0852 30.0799C11.9912 30.1313 11.8858 30.1582 11.7786 30.1582C11.6715 30.1582 11.5661 30.1313 11.4721 30.0799C11.3781 30.0284 11.2985 29.9542 11.2407 29.864C9.22309 26.7104 2.19531 15.4213 2.19531 10.889C2.19531 8.34734 3.20498 5.90978 5.00221 4.11256C6.79943 2.31533 9.23699 1.30566 11.7786 1.30566C14.3203 1.30566 16.7579 2.31533 18.5551 4.11256C20.3523 5.90978 21.362 8.34734 21.362 10.889C21.2773 12.2074 20.975 13.5026 20.4675 14.7223" stroke="#293D82" stroke-width="1.5" stroke-linecap="round" stroke-linejoin="round"/>
<path d="M7.94531 10.889C7.94531 11.9057 8.34918 12.8807 9.06807 13.5996C9.78696 14.3185 10.762 14.7223 11.7786 14.7223C12.7953 14.7223 13.7703 14.3185 14.4892 13.5996C15.2081 12.8807 15.612 11.9057 15.612 10.889C15.612 9.87233 15.2081 8.89731 14.4892 8.17842C13.7703 7.45953 12.7953 7.05566 11.7786 7.05566C10.762 7.05566 9.78696 7.45953 9.06807 8.17842C8.34918 8.89731 7.94531 9.87233 7.94531 10.889Z" stroke="#293D82" stroke-width="1.5" stroke-linecap="round" stroke-linejoin="round"/>
<path d="M30.3073 30.0557C30.3073 30.2251 30.24 30.3876 30.1202 30.5074C30.0003 30.6272 29.8378 30.6946 29.6684 30.6946H22.6406V15.7561C22.6406 15.6471 22.6685 15.54 22.7216 15.4448C22.7746 15.3497 22.8512 15.2697 22.9439 15.2125C23.0366 15.1552 23.1424 15.1226 23.2512 15.1178C23.3601 15.113 23.4683 15.1361 23.5657 15.1849L29.9546 18.3793C30.0606 18.4324 30.1497 18.514 30.212 18.6149C30.2743 18.7157 30.3073 18.8319 30.3073 18.9505V30.0557Z" fill="#F5F7FE" stroke="#293D82" stroke-width="1.5" stroke-linecap="round" stroke-linejoin="round"/>
<path d="M22.6389 20.4722H16.8889C16.7194 20.4722 16.5569 20.5395 16.4371 20.6593C16.3173 20.7791 16.25 20.9416 16.25 21.1111V30.0555C16.25 30.2249 16.3173 30.3874 16.4371 30.5073C16.5569 30.6271 16.7194 30.6944 16.8889 30.6944H22.6389V20.4722Z" fill="#D9E4DC" stroke="#293D82" stroke-width="1.5" stroke-linecap="round" stroke-linejoin="round"/>
<path d="M29.0312 17.9166V14.7222" stroke="#293D82" stroke-width="1.5" stroke-linecap="round" stroke-linejoin="round"/>
<path d="M22.6406 20.4722H25.1962" stroke="#293D82" stroke-width="1.5" stroke-linecap="round" stroke-linejoin="round"/>
<path d="M16.25 23.0278H18.8056" stroke="#293D82" stroke-width="1.5" stroke-linecap="round" stroke-linejoin="round"/>
<path d="M16.25 25.5833H18.8056" stroke="#293D82" stroke-width="1.5" stroke-linecap="round" stroke-linejoin="round"/>
<path d="M22.6406 23.0278H27.1128" stroke="#293D82" stroke-width="1.5" stroke-linecap="round" stroke-linejoin="round"/>
<path d="M25.1953 30.6945V28.7778C25.1953 28.6084 25.2626 28.4459 25.3824 28.326C25.5023 28.2062 25.6648 28.1389 25.8342 28.1389H27.112C27.2814 28.1389 27.4439 28.2062 27.5637 28.326C27.6836 28.4459 27.7509 28.6084 27.7509 28.7778V30.6945H25.1953Z" fill="#D9E4DC" stroke="#293D82" stroke-width="1.5" stroke-linecap="round" stroke-linejoin="round"/>
</svg>
