<svg width="33" height="32" viewBox="0 0 33 32" fill="none" xmlns="http://www.w3.org/2000/svg">
<g clip-path="url(#clip0_901_25509)">
<path d="M30.6894 1.45898L12.7111 23.1556L11.5483 30.6945C11.3362 30.6964 11.1287 30.6322 10.9547 30.5108C10.7807 30.3895 10.6488 30.217 10.5772 30.0173L7.24219 20.8173L30.6894 1.45898Z" fill="#F5F7FE"/>
<path d="M30.6897 1.45886L7.24244 20.8172L2.38688 18.7344C2.15058 18.6311 1.94771 18.464 1.80102 18.2518C1.65432 18.0397 1.5696 17.7909 1.55633 17.5333C1.54369 17.2763 1.60422 17.0211 1.73089 16.7972C1.85755 16.5732 2.04515 16.3899 2.27188 16.2683L29.9358 1.38219C30.0549 1.3187 30.1901 1.29208 30.3244 1.30573C30.4586 1.31939 30.5858 1.37269 30.6897 1.45886Z" fill="white"/>
<path d="M30.918 2.17454L24.133 26.3629C24.0824 26.5521 23.991 26.728 23.8652 26.8781C23.7394 27.0282 23.5822 27.149 23.4047 27.2318C23.2295 27.3148 23.0389 27.36 22.8452 27.3644C22.6514 27.3688 22.4589 27.3323 22.2802 27.2573L16.0958 24.5995L12.403 30.2345C12.3084 30.375 12.181 30.4902 12.0318 30.5704C11.8826 30.6505 11.7162 30.6931 11.5469 30.6945L12.7097 23.1557L30.688 1.45898C30.7942 1.54098 30.8731 1.65327 30.9141 1.78103C30.9552 1.90879 30.9565 2.046 30.918 2.17454Z" fill="white"/>
<path d="M7.24219 20.8109L30.6843 1.45508" stroke="#293D82" stroke-width="1.5" stroke-linecap="round" stroke-linejoin="round"/>
<path d="M12.7107 23.1557L22.28 27.256C22.4594 27.3329 22.6531 27.3704 22.8483 27.3661C23.0434 27.3618 23.2353 27.3157 23.4111 27.2309C23.5869 27.1462 23.7425 27.0247 23.8675 26.8748C23.9924 26.7248 24.0837 26.5498 24.1353 26.3616L30.9177 2.17454C30.9542 2.04529 30.9518 1.90817 30.9107 1.78029C30.8697 1.65242 30.792 1.53945 30.6872 1.45549C30.5824 1.37154 30.4551 1.32031 30.3214 1.3082C30.1877 1.2961 30.0533 1.32365 29.9351 1.38743L2.2738 16.2659C2.04726 16.388 1.85975 16.5715 1.73279 16.7954C1.60583 17.0193 1.54457 17.2744 1.55605 17.5315C1.56752 17.7886 1.65126 18.0373 1.79766 18.2489C1.94405 18.4606 2.14717 18.6267 2.38369 18.7282L7.23924 20.8109" stroke="#293D82" stroke-width="1.5" stroke-linecap="round" stroke-linejoin="round"/>
<path d="M7.24219 20.8108L10.5644 30.0108C10.6292 30.1907 10.7429 30.349 10.8926 30.4679C11.0424 30.5868 11.2223 30.6616 11.4122 30.6839C11.6022 30.7062 11.7945 30.6751 11.9678 30.5941C12.141 30.5131 12.2882 30.3855 12.3929 30.2255L16.0844 24.6032" stroke="#293D82" stroke-width="1.5" stroke-linecap="round" stroke-linejoin="round"/>
<path d="M30.6853 1.45508L12.7095 23.1543L11.5391 30.6945" stroke="#293D82" stroke-width="1.5" stroke-linecap="round" stroke-linejoin="round"/>
</g>
<defs>
<clipPath id="clip0_901_25509">
<rect width="32" height="32" fill="white" transform="translate(0.25)"/>
</clipPath>
</defs>
</svg>
