<svg width="33" height="32" viewBox="0 0 33 32" fill="none" xmlns="http://www.w3.org/2000/svg">
<g clip-path="url(#clip0_901_25495)">
<path d="M10.4737 16.6784L9.40041 17.7517C7.73929 19.4128 5.34985 20.499 2.28318 17.4451C1.75919 14.4938 2.08262 11.4544 3.21596 8.67952C3.31474 8.43436 3.47258 8.21742 3.67544 8.04799C3.87831 7.87857 4.1199 7.76191 4.37874 7.70841C4.63661 7.65912 4.90257 7.67289 5.15397 7.74853C5.40537 7.82418 5.63477 7.95945 5.82263 8.14285L10.4737 12.794C10.7289 13.049 10.9313 13.3517 11.0694 13.685C11.2075 14.0183 11.2786 14.3755 11.2786 14.7362C11.2786 15.0969 11.2075 15.4541 11.0694 15.7874C10.9313 16.1206 10.7289 16.4234 10.4737 16.6784Z" fill="#F5F7FE"/>
<path d="M25.0059 28.3319C24.955 28.5933 24.8394 28.8378 24.6698 29.0432C24.5002 29.2485 24.2819 29.4081 24.0348 29.5075C21.2566 30.6278 18.221 30.9508 15.2692 30.4403C12.2153 27.3608 13.3015 24.9714 14.9626 23.3103C15.2053 23.0803 15.7548 22.518 16.0487 22.2369C16.3024 21.9819 16.6041 21.7795 16.9363 21.6413C17.2685 21.5032 17.6247 21.4321 17.9845 21.4321C18.3443 21.4321 18.7005 21.5032 19.0327 21.6413C19.365 21.7795 19.6666 21.9819 19.9203 22.2369L24.5715 26.888C24.7549 27.0759 24.8901 27.3053 24.9658 27.5567C25.0414 27.8081 25.0552 28.0741 25.0059 28.3319Z" fill="#F5F7FE"/>
<path d="M15.2974 30.4594C12.2308 27.3837 13.3182 24.9866 14.9831 23.323L16.0577 22.2484C16.5715 21.7346 17.2683 21.446 17.9948 21.446C18.7214 21.446 19.4182 21.7346 19.9319 22.2484L24.583 26.8995C24.7696 27.0863 24.9071 27.3163 24.9833 27.5691C25.0595 27.822 25.0719 28.0897 25.0195 28.3485C24.9672 28.6073 24.8516 28.8491 24.6832 29.0524C24.5147 29.2557 24.2986 29.4142 24.054 29.5138C21.1417 30.7041 17.9427 31.0078 14.8584 30.3867C11.7741 29.7657 8.94192 28.2475 6.71723 26.0228C4.49253 23.7981 2.97441 20.966 2.35335 17.8817C1.73229 14.7974 2.03597 11.5984 3.22626 8.68602C3.32583 8.44148 3.48433 8.22535 3.68765 8.0569C3.89097 7.88845 4.13279 7.77289 4.39159 7.72052C4.65038 7.66816 4.9181 7.68061 5.17092 7.75677C5.42373 7.83292 5.65379 7.97042 5.8406 8.15702L10.4943 12.8056C11.008 13.3193 11.2966 14.0161 11.2966 14.7427C11.2966 15.4692 11.008 16.166 10.4943 16.6798L9.41965 17.7544C7.75854 19.4155 5.35887 20.5067 2.28326 17.4401" stroke="#293D82" stroke-width="1.5" stroke-linecap="round" stroke-linejoin="round"/>
<path d="M23.776 16.639C25.2924 16.639 26.7746 16.1894 28.0354 15.3469C29.2962 14.5045 30.2788 13.3071 30.8591 11.9062C31.4394 10.5053 31.5912 8.96383 31.2954 7.47664C30.9996 5.98945 30.2694 4.62338 29.1972 3.55118C28.125 2.47898 26.7589 1.7488 25.2717 1.45298C23.7845 1.15716 22.243 1.30899 20.8421 1.88926C19.4412 2.46953 18.2439 3.45219 17.4014 4.71296C16.559 5.97374 16.1094 7.45601 16.1094 8.97233C16.1094 11.0057 16.9171 12.9557 18.3549 14.3935C19.7927 15.8313 21.7427 16.639 23.776 16.639Z" fill="#D9E4DC"/>
<path d="M23.7758 1.30567C22.2153 1.30442 20.6918 1.77975 19.4089 2.66805C18.126 3.55635 17.145 4.81525 16.5971 6.27631C16.0492 7.73738 15.9606 9.33092 16.3431 10.8437C16.7256 12.3565 17.561 13.7164 18.7375 14.7415L29.5449 3.93406C28.8275 3.10852 27.9411 2.44665 26.9458 1.9932C25.9505 1.53974 24.8695 1.30528 23.7758 1.30567Z" fill="#F5F7FE"/>
<path d="M23.776 16.639C25.2924 16.639 26.7746 16.1894 28.0354 15.3469C29.2962 14.5045 30.2788 13.3071 30.8591 11.9062C31.4394 10.5053 31.5912 8.96383 31.2954 7.47664C30.9996 5.98945 30.2694 4.62339 29.1972 3.55118C28.125 2.47898 26.7589 1.7488 25.2717 1.45298C23.7845 1.15716 22.243 1.30899 20.8421 1.88926C19.4412 2.46953 18.2439 3.45219 17.4014 4.71296C16.559 5.97374 16.1094 7.45601 16.1094 8.97233C16.1094 11.0057 16.9171 12.9557 18.3549 14.3935C19.7927 15.8313 21.7427 16.639 23.776 16.639Z" stroke="#293D82" stroke-width="1.5" stroke-linecap="round" stroke-linejoin="round"/>
<path d="M26.3368 8.97225H23.7812V5.13892" stroke="#293D82" stroke-width="1.5" stroke-linecap="round" stroke-linejoin="round"/>
</g>
<defs>
<clipPath id="clip0_901_25495">
<rect width="32" height="32" fill="white" transform="translate(0.75)"/>
</clipPath>
</defs>
</svg>
