<svg width="32" height="32" viewBox="0 0 32 32" fill="none" xmlns="http://www.w3.org/2000/svg">
<path d="M15.9968 1.40016C18.7621 1.3961 21.4713 2.18066 23.8066 3.66183C29.876 7.50922 30.3232 15.4557 25.4868 21.2658C22.7271 24.5802 19.6895 27.6529 16.4069 30.4504C16.292 30.5467 16.1468 30.5995 15.9968 30.5995C15.8468 30.5995 15.7016 30.5467 15.5866 30.4504C12.3042 27.6523 9.26654 24.5792 6.50673 21.2645C1.67162 15.4557 2.11756 7.50922 8.187 3.66183C10.5222 2.18066 13.2314 1.3961 15.9968 1.40016Z" fill="#F5F7FE"/>
<path d="M15.9973 1.40016C13.2319 1.3961 10.5228 2.18066 8.18752 3.66183C2.11808 7.50922 1.67086 15.4557 6.50725 21.2658C9.26706 24.5805 12.3047 27.6536 15.5871 30.4517C15.7022 30.5477 15.8474 30.6002 15.9973 30.5999V1.40016Z" fill="white"/>
<path d="M15.9968 1.40016C18.7621 1.3961 21.4713 2.18066 23.8066 3.66183C29.876 7.50922 30.3232 15.4557 25.4868 21.2658C22.7271 24.5802 19.6895 27.6529 16.4069 30.4504C16.292 30.5467 16.1468 30.5995 15.9968 30.5995C15.8468 30.5995 15.7016 30.5467 15.5866 30.4504C12.3042 27.6523 9.26654 24.5792 6.50673 21.2645C1.67162 15.4557 2.11756 7.50922 8.187 3.66183C10.5222 2.18066 13.2314 1.3961 15.9968 1.40016Z" stroke="#293D82" stroke-width="1.5" stroke-linecap="round" stroke-linejoin="round"/>
<path d="M9.60938 18.6514C9.60938 18.8208 9.67669 18.9833 9.7965 19.1032C9.91632 19.223 10.0788 19.2903 10.2483 19.2903H21.7483C21.9177 19.2903 22.0802 19.223 22.2 19.1032C22.3198 18.9833 22.3872 18.8208 22.3872 18.6514V8.42917C22.3872 8.25973 22.3198 8.09722 22.2 7.97741C22.0802 7.85759 21.9177 7.79028 21.7483 7.79028H10.2483C10.0788 7.79028 9.91632 7.85759 9.7965 7.97741C9.67669 8.09722 9.60938 8.25973 9.60938 8.42917V18.6514Z" fill="#D9E4DC"/>
<path d="M15.9983 7.79028H10.2483C10.0788 7.79028 9.91632 7.85759 9.7965 7.97741C9.67669 8.09722 9.60938 8.25973 9.60938 8.42917V18.6514C9.60938 18.8208 9.67669 18.9833 9.7965 19.1032C9.91632 19.223 10.0788 19.2903 10.2483 19.2903H15.9983V7.79028Z" fill="#D9E4DC"/>
<path d="M9.60938 18.6514C9.60938 18.8208 9.67669 18.9833 9.7965 19.1032C9.91632 19.223 10.0788 19.2903 10.2483 19.2903H21.7483C21.9177 19.2903 22.0802 19.223 22.2 19.1032C22.3198 18.9833 22.3872 18.8208 22.3872 18.6514V8.42917C22.3872 8.25973 22.3198 8.09722 22.2 7.97741C22.0802 7.85759 21.9177 7.79028 21.7483 7.79028H10.2483C10.0788 7.79028 9.91632 7.85759 9.7965 7.97741C9.67669 8.09722 9.60938 8.25973 9.60938 8.42917V18.6514Z" stroke="#293D82" stroke-width="1.5" stroke-linecap="round" stroke-linejoin="round"/>
<path d="M13.4453 7.79028V12.6394C13.4453 12.7657 13.4828 12.8891 13.5529 12.9941C13.623 13.0991 13.7227 13.181 13.8393 13.2294C13.9559 13.2778 14.0843 13.2906 14.2081 13.2661C14.332 13.2416 14.4458 13.1809 14.5353 13.0918L16.0009 11.63L17.4665 13.0918C17.5559 13.1809 17.6697 13.2416 17.7936 13.2661C17.9175 13.2906 18.0458 13.2778 18.1624 13.2294C18.279 13.181 18.3787 13.0991 18.4488 12.9941C18.519 12.8891 18.5564 12.7657 18.5564 12.6394V7.79028H13.4453Z" fill="#D9E4DC" stroke="#293D82" stroke-width="1.5" stroke-linecap="round" stroke-linejoin="round"/>
</svg>
