<svg width="16" height="16" viewBox="0 0 16 16" fill="none" xmlns="http://www.w3.org/2000/svg">
<g clip-path="url(#clip0_653_5445)">
<path d="M0.757812 1.7561V5.9281C0.757926 6.45849 0.968714 6.96712 1.34381 7.3421L9.09715 15.0954C9.16112 15.1595 9.24128 15.2049 9.32908 15.227C9.41687 15.249 9.509 15.2468 9.59564 15.2206C9.68228 15.1944 9.76018 15.1452 9.82103 15.0782C9.88188 15.0111 9.92339 14.9289 9.94115 14.8401L10.7578 10.7561L14.8418 9.93944C14.9306 9.92168 15.0128 9.88017 15.0799 9.81932C15.1469 9.75847 15.1961 9.68057 15.2223 9.59393C15.2485 9.50729 15.2507 9.41516 15.2287 9.32737C15.2066 9.23958 15.1612 9.15941 15.0971 9.09544L7.34381 1.3421C6.96883 0.967005 6.4602 0.756217 5.92981 0.756104H1.75781C1.4926 0.756104 1.23824 0.86146 1.05071 1.049C0.863169 1.23653 0.757813 1.49089 0.757812 1.7561Z" stroke="#DD1322" stroke-linecap="round" stroke-linejoin="round"/>
<path d="M3.25781 4.2561C3.25781 4.38743 3.28368 4.51746 3.33393 4.63879C3.38419 4.76011 3.45785 4.87035 3.55071 4.96321C3.64356 5.05607 3.7538 5.12973 3.87513 5.17998C3.99645 5.23024 4.12649 5.2561 4.25781 5.2561C4.38913 5.2561 4.51917 5.23024 4.6405 5.17998C4.76182 5.12973 4.87206 5.05607 4.96492 4.96321C5.05778 4.87035 5.13144 4.76011 5.18169 4.63879C5.23195 4.51746 5.25781 4.38743 5.25781 4.2561C5.25781 4.12478 5.23195 3.99475 5.18169 3.87342C5.13144 3.75209 5.05778 3.64186 4.96492 3.549C4.87206 3.45614 4.76182 3.38248 4.6405 3.33222C4.51917 3.28197 4.38913 3.2561 4.25781 3.2561C4.12649 3.2561 3.99645 3.28197 3.87513 3.33222C3.7538 3.38248 3.64356 3.45614 3.55071 3.549C3.45785 3.64186 3.38419 3.75209 3.33393 3.87342C3.28368 3.99475 3.25781 4.12478 3.25781 4.2561Z" stroke="#DD1322" stroke-linecap="round" stroke-linejoin="round"/>
</g>
<defs>
<clipPath id="clip0_653_5445">
<rect width="16" height="16" fill="white"/>
</clipPath>
</defs>
</svg>
