<svg width="16" height="16" viewBox="0 0 16 16" fill="none" xmlns="http://www.w3.org/2000/svg">
<g clip-path="url(#clip0_390_1830)">
<path d="M5.16971 8.17699C4.99395 8.00118 4.89522 7.76274 4.89522 7.51418C4.89522 7.26556 4.99395 7.02718 5.16971 6.85137C5.25683 6.76431 5.32593 6.66093 5.37309 6.54714C5.42024 6.43336 5.44451 6.31141 5.44451 6.18824C5.44451 6.06508 5.42024 5.94312 5.37309 5.82934C5.32593 5.71555 5.25683 5.61218 5.16971 5.52511L3.51221 3.86824C3.3364 3.69249 3.09798 3.59375 2.8494 3.59375C2.6008 3.59375 2.36239 3.69249 2.18658 3.86824L1.79283 4.26136C1.34008 4.71397 1.05528 5.30751 0.985509 5.94389C0.915734 6.58026 1.06516 7.22143 1.40908 7.76137L1.41283 7.76762C3.2292 10.455 5.54388 12.7692 8.23158 14.5851L8.23783 14.5895C8.77783 14.9334 9.41902 15.0827 10.0554 15.0127C10.6918 14.9429 11.2853 14.658 11.7378 14.2051L12.131 13.812C12.2181 13.7249 12.2872 13.6216 12.3343 13.5077C12.3815 13.394 12.4058 13.2721 12.4058 13.1489C12.4058 13.0257 12.3815 12.9037 12.3343 12.7899C12.2872 12.6762 12.2181 12.5728 12.131 12.4857L10.4728 10.8289C10.3858 10.7417 10.2824 10.6726 10.1686 10.6255C10.0548 10.5783 9.9329 10.5541 9.80971 10.5541C9.68652 10.5541 9.56458 10.5783 9.45083 10.6255C9.33702 10.6726 9.23365 10.7417 9.14658 10.8289C8.97077 11.0046 8.73233 11.1034 8.48377 11.1034C8.23521 11.1034 7.99677 11.0046 7.82096 10.8289" stroke="#DD1322" stroke-linecap="round" stroke-linejoin="round"/>
<path d="M11.2812 6.35938C11.1518 6.35938 11.0469 6.25444 11.0469 6.125C11.0469 5.99556 11.1518 5.89062 11.2812 5.89062" stroke="#DD1322"/>
<path d="M11.2812 6.35938C11.4107 6.35938 11.5156 6.25444 11.5156 6.125C11.5156 5.99556 11.4107 5.89062 11.2812 5.89062" stroke="#DD1322"/>
<path d="M11.2813 0.96875C10.6267 0.968786 9.9835 1.14017 9.41569 1.46585C8.84788 1.79154 8.37519 2.26018 8.04462 2.82518C7.71412 3.39019 7.53725 4.03187 7.53162 4.68643C7.52594 5.34099 7.69175 5.98563 8.0125 6.55625L7.0625 9.40625L9.82875 8.17688C10.3406 8.39156 10.8938 8.49 11.4484 8.46494C12.0029 8.43988 12.545 8.29206 13.0354 8.03206C13.5259 7.77213 13.9526 7.4065 14.2846 6.96163C14.6166 6.51673 14.8457 6.00369 14.9553 5.45952C15.065 4.91535 15.0524 4.35362 14.9187 3.81487C14.7849 3.27614 14.5331 2.77382 14.1816 2.34418C13.8301 1.91454 13.3876 1.5683 12.8861 1.33044C12.3845 1.09259 11.8364 0.96905 11.2813 0.96875Z" stroke="#DD1322" stroke-linecap="round" stroke-linejoin="round"/>
<path d="M10.3438 3.78125C10.3438 3.59583 10.3987 3.41458 10.5017 3.26041C10.6047 3.10623 10.7512 2.98607 10.9225 2.91511C11.0938 2.84416 11.2823 2.82559 11.4641 2.86176C11.646 2.89794 11.8131 2.98723 11.9442 3.11834C12.0752 3.24945 12.1646 3.4165 12.2008 3.59836C12.2369 3.78021 12.2183 3.96871 12.1474 4.14002C12.0764 4.31132 11.9562 4.45774 11.8021 4.56075C11.6479 4.66377 11.4667 4.71875 11.2812 4.71875" stroke="#DD1322" stroke-linecap="round" stroke-linejoin="round"/>
</g>
<defs>
<clipPath id="clip0_390_1830">
<rect width="16" height="16" fill="white"/>
</clipPath>
</defs>
</svg>
