<svg width="18" height="18" viewBox="0 0 18 18" fill="none" xmlns="http://www.w3.org/2000/svg">
<path d="M8.25 10.5C8.88333 10.5 9.41667 10.2833 9.85 9.85C10.2833 9.41667 10.5 8.88333 10.5 8.25C10.5 7.61667 10.2833 7.08333 9.85 6.65C9.41667 6.21667 8.88333 6 8.25 6C7.61667 6 7.08333 6.21667 6.65 6.65C6.21667 7.08333 6 7.61667 6 8.25C6 8.88333 6.21667 9.41667 6.65 9.85C7.08333 10.2833 7.61667 10.5 8.25 10.5ZM13.075 14.5L10.45 11.875C10.1167 12.0917 9.7625 12.25 9.3875 12.35C9.0125 12.45 8.63333 12.5 8.25 12.5C7.06667 12.5 6.0625 12.0875 5.2375 11.2625C4.4125 10.4375 4 9.43333 4 8.25C4 7.06667 4.4125 6.0625 5.2375 5.2375C6.0625 4.4125 7.06667 4 8.25 4C9.43333 4 10.4375 4.4125 11.2625 5.2375C12.0875 6.0625 12.5 7.06667 12.5 8.25C12.5 8.63333 12.4458 9.0125 12.3375 9.3875C12.2292 9.7625 12.0667 10.1167 11.85 10.45L14.5 13.1L13.075 14.5ZM2 18C1.45 18 0.979167 17.8042 0.5875 17.4125C0.195833 17.0208 0 16.55 0 16V12H2V16H6V18H2ZM12 18V16H16V12H18V16C18 16.55 17.8042 17.0208 17.4125 17.4125C17.0208 17.8042 16.55 18 16 18H12ZM0 6V2C0 1.45 0.195833 0.979167 0.5875 0.5875C0.979167 0.195833 1.45 0 2 0H6V2H2V6H0ZM16 6V2H12V0H16C16.55 0 17.0208 0.195833 17.4125 0.5875C17.8042 0.979167 18 1.45 18 2V6H16Z" fill="#DD1322"/>
</svg>
